<svg xmlns="http://www.w3.org/2000/svg" viewBox="0 0 1436.61 1436.61"><defs><style>.cls-1{isolation:isolate;}.cls-2{opacity:0.3;mix-blend-mode:multiply;}.cls-3{fill:#fffb00;}.cls-4{fill:#ffed00;}.cls-5{fill:#ffdf00;}.cls-6{fill:#ffd000;}.cls-7{fill:#ffc000;}.cls-8{fill:#ffb200;}.cls-9{fill:#ffa000;}.cls-10{fill:#ff9300;}.cls-11{fill:#ff8700;}.cls-12{fill:#ff7900;}.cls-13{fill:#ff5700;}.cls-14{fill:#ff3b00;}.cls-15{fill:#ff2600;}.cls-16{fill:#f22540;}.cls-17{fill:#e5276f;}.cls-18{fill:#d2278d;}.cls-19{fill:#c82db3;}.cls-20{fill:#a92bbc;}.cls-21{fill:#7524af;}.cls-22{fill:#4d22b3;}.cls-23{fill:#2122b7;}.cls-24{fill:#0229ba;}.cls-25{fill:#0040ba;}.cls-26{fill:#005dbc;}.cls-27{fill:#0074bf;}.cls-28{fill:#0087c3;}.cls-29{fill:#009bcc;}.cls-30{fill:#00afcf;}.cls-31{fill:#00c6a0;}.cls-32{fill:#00bd4f;}.cls-33{fill:#00b600;}.cls-34{fill:#3bbe00;}.cls-35{fill:#70c700;}.cls-36{fill:#9cce00;}.cls-37{fill:#badf00;}.cls-38{fill:#dced00;}</style></defs><title>color</title><g class="cls-1"><g id="Capa_1" data-name="Capa 1"><g class="cls-2"><ellipse class="cls-3" cx="718.31" cy="359.15" rx="214.29" ry="359.15"/></g><g class="cls-2"><ellipse class="cls-4" cx="655.94" cy="364.61" rx="214.29" ry="359.15" transform="translate(-53.35 119.44) rotate(-10)"/></g><g class="cls-2"><ellipse class="cls-5" cx="595.47" cy="380.81" rx="214.29" ry="359.15" transform="matrix(0.94, -0.34, 0.34, 0.94, -94.33, 226.63)"/></g><g class="cls-2"><ellipse class="cls-6" cx="538.73" cy="407.27" rx="214.29" ry="359.15" transform="translate(-131.46 323.93) rotate(-30)"/></g><g class="cls-2"><ellipse class="cls-7" cx="487.45" cy="443.18" rx="214.29" ry="359.15" transform="matrix(0.77, -0.64, 0.64, 0.77, -170.83, 417.01)"/></g><g class="cls-2"><ellipse class="cls-8" cx="443.18" cy="487.45" rx="214.29" ry="359.15" transform="translate(-215.1 513.62) rotate(-50)"/></g><g class="cls-2"><ellipse class="cls-9" cx="407.27" cy="538.73" rx="214.29" ry="359.15" transform="translate(-262.92 622.07) rotate(-60)"/></g><g class="cls-2"><ellipse class="cls-10" cx="380.81" cy="595.47" rx="214.29" ry="359.15" transform="translate(-308.99 749.65) rotate(-70)"/></g><g class="cls-2"><ellipse class="cls-11" cx="364.61" cy="655.94" rx="214.29" ry="359.15" transform="translate(-344.68 901.11) rotate(-80)"/></g><g class="cls-2"><ellipse class="cls-12" cx="359.15" cy="718.31" rx="359.15" ry="214.29"/></g><g class="cls-2"><ellipse class="cls-13" cx="364.61" cy="780.67" rx="359.15" ry="214.29" transform="translate(-130.02 75.17) rotate(-10)"/></g><g class="cls-2"><ellipse class="cls-14" cx="380.81" cy="841.15" rx="359.15" ry="214.29" transform="translate(-264.72 180.97) rotate(-20)"/></g><g class="cls-2"><ellipse class="cls-15" cx="407.27" cy="897.89" rx="359.15" ry="214.29" transform="translate(-394.38 323.93) rotate(-30)"/></g><g class="cls-2"><ellipse class="cls-16" cx="443.18" cy="949.17" rx="359.15" ry="214.29" transform="translate(-506.43 506.93) rotate(-40)"/></g><g class="cls-2"><ellipse class="cls-17" cx="487.45" cy="993.44" rx="359.15" ry="214.29" transform="translate(-586.89 728.28) rotate(-50)"/></g><g class="cls-2"><ellipse class="cls-18" cx="538.73" cy="1029.34" rx="359.15" ry="214.29" transform="translate(-622.07 981.22) rotate(-60)"/></g><g class="cls-2"><ellipse class="cls-19" cx="595.47" cy="1055.8" rx="359.15" ry="214.29" transform="translate(-600.32 1254.26) rotate(-70)"/></g><g class="cls-2"><ellipse class="cls-20" cx="655.94" cy="1072.01" rx="359.15" ry="214.29" transform="translate(-513.68 1531.82) rotate(-80)"/></g><g class="cls-2"><ellipse class="cls-21" cx="718.31" cy="1077.46" rx="214.29" ry="359.15"/></g><g class="cls-2"><ellipse class="cls-22" cx="780.67" cy="1072.01" rx="214.29" ry="359.15" transform="translate(-174.29 151.85) rotate(-10)"/></g><g class="cls-2"><ellipse class="cls-23" cx="841.15" cy="1055.8" rx="214.29" ry="359.15" transform="translate(-310.38 351.36) rotate(-20)"/></g><g class="cls-2"><ellipse class="cls-24" cx="897.88" cy="1029.34" rx="214.29" ry="359.15" transform="translate(-394.38 586.85) rotate(-30)"/></g><g class="cls-2"><ellipse class="cls-25" cx="949.17" cy="993.44" rx="214.29" ry="359.15" transform="translate(-416.5 842.53) rotate(-40)"/></g><g class="cls-2"><ellipse class="cls-26" cx="993.44" cy="949.17" rx="214.29" ry="359.15" transform="translate(-372.24 1100.07) rotate(-50)"/></g><g class="cls-2"><ellipse class="cls-27" cx="1029.34" cy="897.88" rx="214.29" ry="359.15" transform="matrix(0.5, -0.87, 0.87, 0.5, -262.92, 1340.38)"/></g><g class="cls-2"><ellipse class="cls-28" cx="1055.8" cy="841.15" rx="214.29" ry="359.15" transform="translate(-95.72 1545.58) rotate(-70)"/></g><g class="cls-2"><ellipse class="cls-29" cx="1072" cy="780.67" rx="214.29" ry="359.15" transform="translate(117.04 1700.83) rotate(-80)"/></g><g class="cls-2"><ellipse class="cls-30" cx="1077.46" cy="718.31" rx="359.15" ry="214.29"/></g><g class="cls-2"><ellipse class="cls-31" cx="1072" cy="655.94" rx="359.15" ry="214.29" transform="translate(-97.62 196.12) rotate(-10)"/></g><g class="cls-2"><ellipse class="cls-32" cx="1055.8" cy="595.47" rx="359.15" ry="214.29" transform="translate(-139.99 397.02) rotate(-20)"/></g><g class="cls-2"><ellipse class="cls-33" cx="1029.34" cy="538.73" rx="359.15" ry="214.29" transform="translate(-131.46 586.85) rotate(-30)"/></g><g class="cls-2"><ellipse class="cls-34" cx="993.44" cy="487.45" rx="359.15" ry="214.29" transform="translate(-80.91 752.61) rotate(-40)"/></g><g class="cls-2"><ellipse class="cls-35" cx="949.17" cy="443.18" rx="359.15" ry="214.29" transform="translate(-0.44 885.41) rotate(-50)"/></g><g class="cls-2"><ellipse class="cls-36" cx="897.88" cy="407.27" rx="359.15" ry="214.29" transform="translate(96.23 981.23) rotate(-60)"/></g><g class="cls-2"><ellipse class="cls-37" cx="841.15" cy="380.81" rx="359.15" ry="214.29" transform="translate(195.61 1040.99) rotate(-70)"/></g><g class="cls-2"><ellipse class="cls-38" cx="780.67" cy="364.61" rx="359.15" ry="214.29" transform="translate(286.04 1070.11) rotate(-80)"/></g></g></g></svg>