<svg id="Capa_1" data-name="Capa 1" xmlns="http://www.w3.org/2000/svg" viewBox="0 0 1287.56 1293.62"><defs><style>.cls-1{fill:none;}.cls-2{fill:#fff;}</style></defs><title>ESPIRAL</title><path class="cls-1" d="M509.51,372.39c9.28-4.69,11-15.07,5.35-26.27-4.94-9.79-14.22-15.62-23.7-10.83-6.06,3.06-9.62,10.06-8,17.74a19.24,19.24,0,0,0,1.33,3.88l4.43,8.78a18.87,18.87,0,0,0,2,3A15.35,15.35,0,0,0,509.51,372.39Z"/><path class="cls-1" d="M429.71,389.18l17.93,22.87a53.29,53.29,0,0,0,6.77-4.74c8-6.28,13.09-15,6.26-23.72-6.42-8.19-16.1-6.06-24.55.57Z"/><polygon class="cls-1" points="684.56 285.29 669.35 314.85 692 317.51 684.78 285.31 684.56 285.29"/><path class="cls-1" d="M334.3,758.54a21.79,21.79,0,0,0-2-3.23q-1.51-2.19-3-4a54.31,54.31,0,0,0-16.58-13.51q-9-4.62-16.37-2.31a4.49,4.49,0,0,0-3.16,3.72,14.86,14.86,0,0,0,.76,7.11,80.35,80.35,0,0,0,4.52,10.79,74.19,74.19,0,0,0,5.47,9.66,55.19,55.19,0,0,0,12.88-2Q323.83,762.56,334.3,758.54Z"/><path class="cls-1" d="M103.84,827q-12.9-15.21-28.37-23.14t-28-4a7.66,7.66,0,0,0-5.4,6.37q-1,5,1.28,12.17a136.79,136.79,0,0,0,7.74,18.48,125.91,125.91,0,0,0,9.35,16.54q13.55-.81,22-3.48,12-3.76,29.94-10.62a36.45,36.45,0,0,0-3.36-5.54Q106.43,830.06,103.84,827Z"/><path class="cls-1" d="M628.89,1011.21q4.26,3.38,13.3,3.49l14.87.17.32-27.64-14.47-.17a27.68,27.68,0,0,0-8,.93,16.17,16.17,0,0,0-5.66,2.76,11,11,0,0,0-3.36,4.34,14.67,14.67,0,0,0-1.14,5.61Q624.64,1007.83,628.89,1011.21Z"/><path class="cls-1" d="M415.21,427.91l-7.12-6.28c-7.35,8-14.06,18.5-6.09,25.53,4.83,4.26,10,3.06,13.33-.75a13.62,13.62,0,0,0,1.88-16A10.16,10.16,0,0,0,415.21,427.91Z"/><path class="cls-1" d="M657.47,979.43l.33-28.21-17.53-.2a26.58,26.58,0,0,0-8.07,1,14.94,14.94,0,0,0-5.57,3,11.63,11.63,0,0,0-3.25,4.6,16.37,16.37,0,0,0-1.08,5.89,12.15,12.15,0,0,0,4.32,10q4.39,3.71,13.38,3.8Z"/><polygon class="cls-1" points="712.67 29.47 712.3 29.42 686.26 80.04 725.03 84.6 712.67 29.47"/><path class="cls-1" d="M228.45,306.52c8.28,7.3,17.06,5.25,22.83-1.28,8.07-9.15,7.39-20.08,3.23-27.36a17.77,17.77,0,0,0-3.42-4.31L238.9,262.81C226.31,276.48,214.81,294.48,228.45,306.52Z"/><path class="cls-1" d="M318.19,238.32c13.71-10.74,22.42-25.68,10.71-40.62-11-14-27.56-10.37-42,1l-11,8.6,30.69,39.16A91,91,0,0,0,318.19,238.32Z"/><path class="cls-1" d="M129.32,336.06c-8.82-1.77-16.49-4-24-6.11l-.19.34c5.72,5.56,11.51,11.39,17.11,17.56l26.21,30,19.75-34Z"/><path class="cls-1" d="M288.81,153.13c-9.44-12-22.28-9.6-35.69.91-6.09,4.78-9.24,8-11,10.11L268,197.21l12-9.43C294.07,176.8,296.57,163,288.81,153.13Z"/><path class="cls-1" d="M373.81,884.39a56.14,56.14,0,0,0,8-2.72q7.89-3.36,25.84-11.41l-10.47-8.4-8.47-7-2.36-2c-.76,1.19-2.37,3.66-4.81,7.44s-4.34,7-5.67,9.55a63.75,63.75,0,0,0-3.73,8.75c-1.1,3.19-1.56,5.45-1.37,6.8Z"/><path class="cls-1" d="M346.51,812.41a79.62,79.62,0,0,0,15.3,3.61,95.47,95.47,0,0,0,17,1.08q7.93-.24,11.46-2.27c2-1.12,2.42-2.6,1.37-4.43a18.66,18.66,0,0,0-9.77-8,53.18,53.18,0,0,0-14.4-3.4q-7.67-.76-18.31-.91a19.48,19.48,0,0,0-7.05,2.48,6.4,6.4,0,0,0-2.88,3.27,4.63,4.63,0,0,0,.37,4.16C340.51,809.68,342.83,811.13,346.51,812.41Z"/><path class="cls-1" d="M377.24,167.07a31.69,31.69,0,0,0,3.49,5.18c8.26,9.06,20.74,11.87,31.8,6.28,15.89-8,18.85-25.79,9.17-45-8.47-16.76-24.35-26.74-40.6-18.54-10.36,5.24-16.46,17.21-13.73,30.36a34,34,0,0,0,2.28,6.66Z"/><path class="cls-1" d="M340,471.27l15.31,17.53L366.83,469l-22.71-4.57c-5.16-1-9.64-2.33-14-3.57L330,461C333.33,464.26,336.71,467.67,340,471.27Z"/><path class="cls-1" d="M437.25,357.56c-5.51-7-13-5.61-20.84.53A42.74,42.74,0,0,0,410,364l15.14,19.31,7-5.51C440.32,371.38,441.78,363.34,437.25,357.56Z"/><path class="cls-1" d="M789.8,979c-.15-1.35-.24-2.55-.28-3.6l-1.22-35.25L760.49,952l24.63,25.32a60.87,60.87,0,0,1,5.24,6.06C790.13,981.78,789.94,980.31,789.8,979Z"/><path class="cls-1" d="M965,660.35l5.2.1c-.85-2.73-1.06-3.52-1.84-9.76-1.3-8.51-1.7-11.23-7.81-11.35-4-.08-6.28,3.15-6.38,8.13C954,654.25,957.72,660.21,965,660.35Z"/><path class="cls-1" d="M848.55,421a11.07,11.07,0,0,0,1.56,2.79,16.54,16.54,0,0,0,1.84,2,14,14,0,0,0,4.15,2.7,8.23,8.23,0,0,0,5,.33,17.49,17.49,0,0,0,6.17-2.94,61.11,61.11,0,0,0,14.14-15.27,17.32,17.32,0,0,0,2.43-6.33,8.29,8.29,0,0,0-.75-4.93,14.16,14.16,0,0,0-3.13-4,12.88,12.88,0,0,0-5.63-3.26,11.41,11.41,0,0,0-5.88.14,19.31,19.31,0,0,0-6.07,3.07,43.17,43.17,0,0,0-6.22,5.64,41.47,41.47,0,0,0-5,6.47,25.43,25.43,0,0,0-2.59,5.46,12.51,12.51,0,0,0-.66,4.49A11.8,11.8,0,0,0,848.55,421Z"/><path class="cls-1" d="M899.94,890.27,890.72,901c6.08,5.23,25.86,8.08,39.94-8.29,13.28-15.42,13.3-37.63-5.81-54.08S883.78,825.5,871,840.33c-19.17,22.28-2.9,41.5.32,44.87l9.14-10.62c-1.46-1.26-12.2-14.08-1.06-27,7.3-8.49,21.63-10.92,36.28,1.69s14.46,27.06,6.56,36.23C916.88,891.73,907.8,894.66,899.94,890.27Z"/><path class="cls-1" d="M832.43,925.41,822,933c9.86,9.2,20.63,8.67,31.36.93,15.12-10.93,14.43-27.72,5.83-39.64-11.66-16.13-27.64-15.47-38.91-7.33s-14.59,21.14-8.7,31.81l9.9-7.15c-3.11-6.82-2.14-12.82,4.09-17.32,5.5-4,14.16-4.93,22.83,7.08,2.32,3.21,11.85,16.41-.34,25.21C842.82,930.33,837.35,930.09,832.43,925.41Z"/><path class="cls-1" d="M822.48,351.31a17.49,17.49,0,0,0,7.62,1.18,10.91,10.91,0,0,0,6-2.61,29,29,0,0,0,7.76-12.54,9.39,9.39,0,0,0-.15-5.46,13.5,13.5,0,0,0-3.64-5.31,41.66,41.66,0,0,0-7.92-5.67L823,315.57l-16.1,27.62,5.63,3.27A62.58,62.58,0,0,0,822.48,351.31Z"/><path class="cls-1" d="M738.53,340.86a6.8,6.8,0,0,0-3.66,2.23,12.59,12.59,0,0,0-2.09,4c-.92,2.72-1,4.95-.36,6.67a6.13,6.13,0,0,0,4,3.59,12.34,12.34,0,0,0,8.4-.4,12.67,12.67,0,0,0,4.33-3.06,15.37,15.37,0,0,0,3.27-5.82l1.71-5.08a59.27,59.27,0,0,0-9.5-2.24A16.5,16.5,0,0,0,738.53,340.86Z"/><path class="cls-1" d="M813.14,387.91a11.77,11.77,0,0,0,5.74-3,29.09,29.09,0,0,0,5.15-6.75A27.32,27.32,0,0,0,827.1,371a10.49,10.49,0,0,0-.42-6.41,17.35,17.35,0,0,0-4.69-6.31,58.24,58.24,0,0,0-9.83-6.87L804.67,347l-17.62,30.24,10.21,5.95a43.94,43.94,0,0,0,8.88,4.12A14.42,14.42,0,0,0,813.14,387.91Z"/><path class="cls-1" d="M920.5,204.17a24.66,24.66,0,0,0,12,1,20.09,20.09,0,0,0,9.84-5.15,49.64,49.64,0,0,0,8.81-11.55,46.31,46.31,0,0,0,5.26-12.31,18,18,0,0,0-.71-11q-2.07-5.37-8-10.81a100.39,100.39,0,0,0-16.82-11.78L918,135.16l-30.18,51.77,17.48,10.19A75.59,75.59,0,0,0,920.5,204.17Z"/><path class="cls-1" d="M986.09,744.37c7.79,1.94,9.46-4.75,10.74-9.91l3.57-14.38-15.47-3.84-3.57,14.38C980.08,735.77,978.41,742.47,986.09,744.37Z"/><path class="cls-1" d="M948.51,142.54a29.64,29.64,0,0,0,13,2,18.56,18.56,0,0,0,10.26-4.46A42.67,42.67,0,0,0,980.6,129a42.43,42.43,0,0,0,4.49-10.34,16.13,16.13,0,0,0-.24-9.34,23.31,23.31,0,0,0-6.24-9.1,72,72,0,0,0-13.54-9.7l-15.68-9.14-27.57,47.28,9.64,5.61A105.46,105.46,0,0,0,948.51,142.54Z"/><path class="cls-1" d="M1017.57,707.23,944.06,689l-8.78,35.33c-3.19,12.84-1.38,27.15,14.64,31.13,12.5,3.11,19.18-5,22-8.75,2.78,7.1,6,12.33,13.6,14.21,17.66,4.39,22.6-15.47,23.8-20.3Zm-47.79,22.14c-1.5,6-4,16-15.5,13.16s-8.93-12.82-7.43-18.86l4.58-18.43,22.93,5.7Zm29.46,5.69c-1.36,5.48-3.57,14.37-13.77,11.84s-7.89-11.4-6.53-16.88l4.2-16.9,20.3,5Z"/><path class="cls-1" d="M801.09,152.75a20.64,20.64,0,0,0,6.62.94,20.36,20.36,0,0,0,7.78-1.62,21.7,21.7,0,0,0,7.4-5.23,26.5,26.5,0,0,0,5.61-10l2.93-8.69a100.7,100.7,0,0,0-16.27-3.84,28.22,28.22,0,0,0-10.46.26,11.63,11.63,0,0,0-6.27,3.82,21.4,21.4,0,0,0-3.58,6.77q-2.36,7-.61,11.42A10.46,10.46,0,0,0,801.09,152.75Z"/><polygon class="cls-1" points="971.07 586.36 993.35 572.97 993.31 572.75 967.5 569.09 971.07 586.36"/><path class="cls-1" d="M925.05,757.55,919.72,768l7.36,3.74-.1.2a21,21,0,0,0-17,11.77c-8.35,16.43,3.61,29.35,14.49,34.88,21,10.66,32.52-.6,35.75-7,3.73-7.35,4-12.41.9-22L987,802.85l5.58-11Zm29.59,45.09c-3.07,6.05-10.64,11.46-24.35,4.49s-13.8-16.27-10.73-22.31,10.64-11.47,24.35-4.5S957.71,796.59,954.64,802.64Z"/><path class="cls-1" d="M954.91,740c9.11,2.27,11.07-5.63,12.46-11.23l4-15.91-18.1-4.5-4,15.91C947.88,729.87,945.91,737.77,954.91,740Z"/><path class="cls-1" d="M1012.36,561.07l-80-12.66,2.91,14.06,18.86,2.45,6.26,30.22-16.35,9.73,3,14.73,68.41-43.25Zm-43,29.33-5-24.35,35.86,5.39Z"/><path class="cls-1" d="M953.47,675.05l30.52.61c5.66.11,17.3.34,17.78-23.62.43-21.71-12.28-25.13-15.33-25.19l-1,0-.24,12.1c.79,0,8.91,1.19,8.68,12.38-.05,2.83-.25,12.67-8.84,12.49-5.31-.1-7-2.17-8-14.4-1.49-16-3.45-25.29-16.57-25.55-15.71-.32-15.91,15.62-16,19.24-.15,7.69,3,13.29,7.75,20.06l-1.47,0c-1.7,0-4.42.14-5.1.58l-.25,12.43C946.67,675.59,949.06,675,953.47,675.05Zm-1.82-27.63c.14-7.12,3.6-10.79,9.14-10.67,6.79.13,8.83,5.26,9.33,8.89L971,652c1,7.48,1.74,9.08,2.6,11.13L965.7,663C956.09,662.78,951.49,655.22,951.65,647.42Z"/><path class="cls-1" d="M1172.61,696.94l52.25,1.06c9.68.2,29.61.6,30.45-40.43.75-37.16-21-43-26.23-43.13l-1.74,0-.43,20.71c1.36,0,15.26,2,14.87,21.21-.1,4.84-.44,21.68-15.15,21.38-9.09-.19-11.93-3.73-13.63-24.67-2.55-27.36-5.9-43.3-28.35-43.76-26.9-.54-27.26,26.75-27.39,32.94-.26,13.16,5.16,22.76,13.25,34.35l-2.52-.05c-2.9-.06-7.56.23-8.73,1l-.44,21.29C1161,697.87,1165.06,696.79,1172.61,696.94Zm-3.11-47.31c.25-12.19,6.19-18.46,15.67-18.26,11.61.23,15.11,9,15.95,15.23l1.53,10.87c1.67,12.81,3,15.55,4.45,19.07l-13.55-.28C1177.1,675.93,1169.23,663,1169.5,649.63Z"/><path class="cls-1" d="M539.27,1158.22a29.83,29.83,0,0,0-11.72-5.4q-13.38-3.1-22.76,4.76t-13.46,25.49a68.92,68.92,0,0,0-2.07,16.41,32.1,32.1,0,0,0,2.21,12.09,19,19,0,0,0,6.19,8,26.08,26.08,0,0,0,9.81,4.37,27.85,27.85,0,0,0,15.26-.44,42.48,42.48,0,0,0,13.83-8l10.71-46.2A27,27,0,0,0,539.27,1158.22Z"/><path class="cls-1" d="M1192.29,671.78l8.9.18c-1.45-4.67-1.81-6-3.15-16.71-2.22-14.57-2.9-19.23-13.35-19.44-6.77-.14-10.76,5.4-10.93,13.91C1173.53,661.33,1179.9,671.53,1192.29,671.78Z"/><path class="cls-1" d="M944.34,1059.66c-19.47,14-25,36.17-14.91,54.44l17-12.23c-5.32-11.68-3.66-21.95,7-29.65,9.42-6.8,24.24-8.42,39.08,12.15,4,5.49,20.27,28.1-.61,43.16-9,6.46-18.31,6-26.72-2l-17.9,12.91c16.86,15.76,35.31,14.86,53.68,1.61,25.9-18.68,24.73-47.44,10-67.85C991,1044.61,963.65,1045.73,944.34,1059.66Z"/><path class="cls-1" d="M763.89,1180.09a18.88,18.88,0,0,0,6.36-7.09,12.42,12.42,0,0,0,.9-7.72,16.51,16.51,0,0,0-2.52-6.35,12.72,12.72,0,0,0-4.21-3.89,13.47,13.47,0,0,0-5.45-1.61,23,23,0,0,0-6.33.39,35.69,35.69,0,0,0-8,2.5,32.91,32.91,0,0,0-6.48,3.93,37.28,37.28,0,0,0-5.48,5.27,55,55,0,0,0-4.79,6.55l3.88,19.86a116.61,116.61,0,0,0,19.57-5.37A56.53,56.53,0,0,0,763.89,1180.09Z"/><path class="cls-1" d="M626.77,1232.53a27.83,27.83,0,0,0-9.69,4.72,18.91,18.91,0,0,0-5.75,7.43,24.72,24.72,0,0,0-2,9.61q-.15,12.2,7.14,18t22.77,6l25.45.31.58-47.32-24.77-.31A48.11,48.11,0,0,0,626.77,1232.53Z"/><path class="cls-1" d="M1123.47,977c-32.71-28.18-70.31-22.5-92.16,2.88-32.85,38.13-5,71.06.5,76.83l15.67-18.19c-2.49-2.15-20.87-24.11-1.8-46.26,12.51-14.52,37-18.68,62.12,2.92s24.73,46.34,11.21,62c-9.22,10.71-24.77,15.71-38.23,8.2L1065,1083.79c10.41,9,44.27,13.86,68.4-14.16C1156.13,1043.23,1156.18,1005.21,1123.47,977Z"/><path class="cls-1" d="M583.72,944.61a17.65,17.65,0,0,0-6.84-3.15q-7.82-1.8-13.29,2.79t-7.86,14.89a40.67,40.67,0,0,0-1.2,9.59,18.69,18.69,0,0,0,1.3,7.06,11.12,11.12,0,0,0,3.61,4.7,15.45,15.45,0,0,0,5.74,2.54,16.23,16.23,0,0,0,8.91-.26,24.9,24.9,0,0,0,8.07-4.69l6.24-27A15.76,15.76,0,0,0,583.72,944.61Z"/><path class="cls-1" d="M714.9,957.32a10.93,10.93,0,0,0,3.71-4.15,7.21,7.21,0,0,0,.53-4.51,9.57,9.57,0,0,0-1.47-3.7,7.51,7.51,0,0,0-2.47-2.28,7.92,7.92,0,0,0-3.18-.94,13.5,13.5,0,0,0-3.7.24,20.22,20.22,0,0,0-4.66,1.46,18.77,18.77,0,0,0-3.79,2.3,22,22,0,0,0-3.2,3.07,32.85,32.85,0,0,0-2.79,3.83l2.28,11.6a67.28,67.28,0,0,0,11.42-3.14A32.86,32.86,0,0,0,714.9,957.32Z"/><path class="cls-1" d="M612.7,1176a20,20,0,0,0-5.56,7.87,28.21,28.21,0,0,0-1.87,10.09q-.13,10.74,7.39,17.08t22.91,6.53l29.9.36.6-48.29-30-.37a45.42,45.42,0,0,0-13.81,1.67A25.84,25.84,0,0,0,612.7,1176Z"/><path class="cls-1" d="M891.61,1211.06l-2.06-60.36L841.92,1171l42.15,43.38a104.72,104.72,0,0,1,9,10.39c-.39-2.72-.7-5.23-.95-7.54S891.67,1212.86,891.61,1211.06Z"/><path class="cls-1" d="M1228.44,815.64c13.33,3.32,16.18-8.14,18.38-17l6.12-24.61-26.49-6.59-6.12,24.61C1218.14,800.91,1215.29,812.37,1228.44,815.64Z"/><path class="cls-1" d="M1156.49,720.75l-15,60.49c-5.46,22-2.38,46.48,25,53.3,21.42,5.33,32.86-8.58,37.64-15,4.76,12.15,10.31,21.11,23.27,24.34,30.24,7.52,38.7-26.48,40.76-34.75l14.2-57.11Zm44,69.19c-2.57,10.34-6.82,27.43-26.55,22.52-19.54-4.85-15.28-22-12.71-32.28l7.85-31.56,39.26,9.77ZM1251,799.7c-2.33,9.39-6.12,24.61-23.59,20.26-17.28-4.3-13.5-19.51-11.16-28.91l7.2-28.93,34.75,8.65Z"/><polygon class="cls-1" points="1240.97 522.2 1240.89 521.82 1196.7 515.53 1202.8 545.11 1240.97 522.2"/><path class="cls-1" d="M1134.85,919.12c21.23,10.8,31.41,3.16,35.88-5.64s4.65-21.53-16.57-32.32-31.41-3.16-35.88,5.64S1113.63,908.33,1134.85,919.12Z"/><path class="cls-1" d="M1141.57,504.18l32.3,4.2,10.69,51.76-28,16.65,5.2,25.22,117.16-74-5.4-26.16L1136.6,480.1Zm111.11,15.41L1199.88,552l-8.61-41.7Z"/><path class="cls-1" d="M1127.36,862.54l-.18.34c-6.58.56-20.89,3.93-29.14,20.15-14.3,28.13,6.15,50.26,24.79,59.73,35.89,18.25,55.68-1,61.2-11.88,6.41-12.59,6.9-21.25,1.56-37.65l44.35,22.56L1239.5,897l-115.61-58.8-9.13,18Zm28.82,14.65c23.46,11.93,23.61,27.87,18.35,38.22s-18.23,19.61-41.7,7.68-23.62-27.87-18.35-38.22S1132.71,865.26,1156.18,877.19Z"/><path class="cls-1" d="M1175,808.15c15.6,3.87,19-9.65,21.34-19.23l6.78-27.24-31-7.71-6.77,27.24C1163,790.79,1159.64,804.31,1175,808.15Z"/><path class="cls-1" d="M942.73,782.64c-12.39-6.3-18.34-1.84-21,3.3s-2.71,12.57,9.69,18.87,18.34,1.84,20.95-3.3S955.13,788.94,942.73,782.64Z"/><path class="cls-1" d="M208.11,935.76q5-2.88,2.35-7.58-5.19-9.07-16.72-13.63a91.14,91.14,0,0,0-24.65-5.86q-13.12-1.29-31.35-1.57a33.62,33.62,0,0,0-12.07,4.23,11,11,0,0,0-4.94,5.61,7.94,7.94,0,0,0,.62,7.12q2.41,4.2,11.87,7.48a134.14,134.14,0,0,0,26.19,6.2,163.06,163.06,0,0,0,29.06,1.88Q202.06,939.22,208.11,935.76Z"/><path class="cls-1" d="M205.49,1004.33l-4-3.4-8.25,12.73q-6.28,9.71-9.71,16.35a108.48,108.48,0,0,0-6.4,15q-2.84,8.19-2.36,11.65l5.19-1.74a98.44,98.44,0,0,0,13.72-4.65q13.52-5.76,44.25-19.52L220,1016.33Z"/><path class="cls-1" d="M1006.07,227.65a71.1,71.1,0,0,0-8.62,11.08,43.17,43.17,0,0,0-4.45,9.34,21.48,21.48,0,0,0-1.14,7.7,20.4,20.4,0,0,0,1.25,6.17,18.56,18.56,0,0,0,2.66,4.78,29.38,29.38,0,0,0,3.15,3.49,23.74,23.74,0,0,0,7.11,4.63,14.15,14.15,0,0,0,8.48.57,30.21,30.21,0,0,0,10.57-5,84.8,84.8,0,0,0,13.37-12.16,84.64,84.64,0,0,0,10.85-14,29.68,29.68,0,0,0,4.16-10.83,14.17,14.17,0,0,0-1.27-8.44,24.71,24.71,0,0,0-5.36-6.88,22.21,22.21,0,0,0-9.65-5.58,19.54,19.54,0,0,0-10.06.23,33.3,33.3,0,0,0-10.39,5.26A74.45,74.45,0,0,0,1006.07,227.65Z"/><path class="cls-2" d="M186.76,419.83l-28.67-32.34,23.25-40,42.49,8.57,9-15.56L97.7,313.42,87.48,331,178,434.89Zm-64.51-72c-5.6-6.17-11.39-12-17.11-17.56l.19-.34c7.5,2.12,15.17,4.34,24,6.11l38.89,7.83-19.75,34Z"/><path class="cls-2" d="M198,255.62c12.68-14.37,24.54-6.74,30.35-1.62l1.45,1.28c-24.1,27-28.14,50.31-11.16,65.29,10.16,9,26.58,10.55,39.13-3.67,8.84-10,10.57-21.92,8.51-30.7l.39-.44,9.75,6.8L286.66,281a131.77,131.77,0,0,1-17.86-13.7l-26.27-23.19c-14.08-12.42-33.35-20.14-52.31,1.34-7.81,8.86-12.78,19.45-14.13,28.59l11,4.53A46.59,46.59,0,0,1,198,255.62Zm53.1,17.95a17.77,17.77,0,0,1,3.42,4.31c4.16,7.28,4.84,18.21-3.23,27.36-5.77,6.53-14.55,8.58-22.83,1.28-13.64-12-2.14-30,10.45-43.71Z"/><path class="cls-2" d="M322.5,251.67c16.76-13.14,25.95-25.26,28-37.42A35.17,35.17,0,0,0,343,186.87c-11.94-15.24-29.7-14.36-41.36-9.15l-.24-.31c7.72-12.44,7.46-26.25-.3-36.16-6.33-8.08-14.3-11.66-22.74-11.44-10.46-.17-20.78,4.23-34,14.62a162.81,162.81,0,0,0-22.56,21.12l79.17,101A197.36,197.36,0,0,0,322.5,251.67Zm-80.39-87.52c1.77-2.13,4.92-5.33,11-10.11,13.41-10.51,26.25-12.95,35.69-.91,7.76,9.9,5.26,23.67-8.76,34.65l-12,9.43Zm44.76,34.52c14.47-11.34,31.05-15,42-1,11.71,14.94,3,29.88-10.71,40.62a91,91,0,0,1-11.6,8.11L275.9,207.27Z"/><path class="cls-2" d="M378.45,208.54l13.13-6.64-6.29-14.17.52-.26c11.8,7.92,23.84,7.7,35.93,1.59,18.67-9.43,30-33.8,14.9-63.7C424,99.87,400.57,90,379.83,100.48c-13.48,6.81-20.1,17.75-20.74,29.78l-.35.18L332.21,77.9l-15,7.6,51.05,101.09C372,194,375.91,202.66,378.45,208.54ZM381.1,115c16.25-8.2,32.13,1.78,40.6,18.54,9.68,19.18,6.72,36.94-9.17,45-11.06,5.59-23.54,2.78-31.8-6.28a31.69,31.69,0,0,1-3.49-5.18l-7.59-15a34,34,0,0,1-2.28-6.66C364.64,132.23,370.74,120.26,381.1,115Z"/><path class="cls-2" d="M528,150.4c15.32-4.15,26.47-10.39,31.64-15l-6.86-12c-5.68,5-15.21,9.74-25.12,12.43-30.64,8.3-53.75-6.69-62.11-37.52-9-33.07,5.54-57.26,35.06-65.26,10.46-2.83,19.85-3,26.83-1.65l.33-14.33C522.82,16,512,15.33,496.31,19.58c-39.05,10.59-58.52,44.55-47.84,84C459.66,144.84,492.46,160,528,150.4Z"/><path class="cls-2" d="M613,137.66c11.85-1,21-4.6,25.59-7.27l42.08,5,.89-7.51-18.78-2.2L682.46,87.3l44.3,5.21,9.37,41.74L716.6,132l-.88,7.51,57.73,6.79.89-7.51-18.59-2.19L725.27.87,717.86,0,653.71,124.55l-16.7-2-1.64-5.13a48.44,48.44,0,0,1-20.43,6.43c-18.51,1.6-33.55-10.51-35.42-32.1-1.68-19.48,8.52-36.3,29.93-38.15,9.26-.8,15.8.77,20,2.73l2.73-13.44c-4.83-1.92-13.92-3.66-24-2.79-30.47,2.64-48.34,25.17-45.85,53.9C564.9,122.58,584.87,140.09,613,137.66ZM712.3,29.42l.37,0L725,84.6,686.26,80Z"/><path class="cls-2" d="M778.57,148a21.73,21.73,0,0,0,5.85,6.61,31.64,31.64,0,0,0,9.26,4.77,36.74,36.74,0,0,0,6.8,1.6,30.05,30.05,0,0,0,7.1.1,27.63,27.63,0,0,0,7.3-1.83,34.37,34.37,0,0,0,7.36-4.1l.45.15a16.32,16.32,0,0,0-.55,4.9,8.61,8.61,0,0,0,1.42,4.37,13.17,13.17,0,0,0,4.14,3.84,35.08,35.08,0,0,0,7.58,3.4c1.25.43,3,.94,5.17,1.55a57,57,0,0,0,7.28,1.46l2.24-6.63a44.33,44.33,0,0,1-6.09-1.46,10.22,10.22,0,0,1-3.81-2,4.61,4.61,0,0,1-1.39-3,13,13,0,0,1,.52-4.51c.47-1.8,1.16-4,2-6.65s1.88-5.53,3-8.89,2.34-6.68,3.5-9.94,2.23-6.25,3.17-9,1.63-4.66,2-5.85a37.6,37.6,0,0,0,2.3-12.59,18.83,18.83,0,0,0-2.58-9.5,22,22,0,0,0-7-7,49.54,49.54,0,0,0-11-5.1,57,57,0,0,0-14.48-3.09,35.07,35.07,0,0,0-11.39,1,20.25,20.25,0,0,0-8.07,4.11,14.64,14.64,0,0,0-4.41,6.44,10.69,10.69,0,0,0-.62,4.33,9,9,0,0,0,1,3.59,8,8,0,0,0,2.38,2.7,12.13,12.13,0,0,0,3.31,1.72,9.31,9.31,0,0,0,7.47-.27,9.18,9.18,0,0,0,4.54-5.46,11.65,11.65,0,0,0,.49-4.87,14.86,14.86,0,0,0-1.71-5.42,20.17,20.17,0,0,1,7.19-.76,33.46,33.46,0,0,1,9,1.84q7.26,2.44,9.52,6.85t-.5,12.55q-1.05,3.13-2.19,6.34c-.75,2.14-1.61,4.55-2.58,7.21q-23.16-7.31-37.58-4.94t-18.62,14.82a22.72,22.72,0,0,0-1.24,8.71A18.41,18.41,0,0,0,778.57,148Zm16.28-12.77a21.4,21.4,0,0,1,3.58-6.77,11.63,11.63,0,0,1,6.27-3.82,28.22,28.22,0,0,1,10.46-.26,100.7,100.7,0,0,1,16.27,3.84l-2.93,8.69a26.5,26.5,0,0,1-5.61,10,21.7,21.7,0,0,1-7.4,5.23,20.36,20.36,0,0,1-7.78,1.62,20.64,20.64,0,0,1-6.62-.94,10.46,10.46,0,0,1-6.85-6.15Q792.49,142.18,794.85,135.18Z"/><path class="cls-2" d="M902.8,204.41q13.49,7.86,24.1,10.28t18.81.95a30.23,30.23,0,0,0,14-6.13,39.68,39.68,0,0,0,9.5-11,35.92,35.92,0,0,0,4.32-11.16,26.3,26.3,0,0,0-.32-11.56,34.44,34.44,0,0,0-5.7-11.81A62.37,62.37,0,0,0,955.77,152l.19-.33a52.72,52.72,0,0,0,14.55,2.36,34.79,34.79,0,0,0,11.94-1.9,28.85,28.85,0,0,0,9.35-5.44,32.72,32.72,0,0,0,6.78-8.25,29.75,29.75,0,0,0,4-12.3,25.71,25.71,0,0,0-2.49-13.27q-3.12-6.84-10.45-14a103.29,103.29,0,0,0-19.75-14.36L920.94,56l-3.81,6.53,16.34,9.52L871.91,177.65l-16.33-9.52-3.81,6.53ZM949.39,81.35l15.68,9.14a72,72,0,0,1,13.54,9.7,23.31,23.31,0,0,1,6.24,9.1,16.13,16.13,0,0,1,.24,9.34A42.43,42.43,0,0,1,980.6,129a42.67,42.67,0,0,1-8.79,11.13,18.56,18.56,0,0,1-10.26,4.46,29.64,29.64,0,0,1-13-2,105.46,105.46,0,0,1-17-8.3l-9.64-5.61ZM918,135.16l12.83,7.47a100.39,100.39,0,0,1,16.82,11.78q6,5.44,8,10.81a18,18,0,0,1,.71,11,46.31,46.31,0,0,1-5.26,12.31,49.64,49.64,0,0,1-8.81,11.55,20.09,20.09,0,0,1-9.84,5.15,24.66,24.66,0,0,1-12-1,75.59,75.59,0,0,1-15.19-7l-17.48-10.19Z"/><path class="cls-2" d="M965.8,246.16l9.72,9,10.4-6,.42.39a26.56,26.56,0,0,0,.59,15.16,30.19,30.19,0,0,0,8.1,12,35.78,35.78,0,0,0,12.75,7.66,36.45,36.45,0,0,0,14.72,1.9,41.26,41.26,0,0,0,15.31-4.39,50.36,50.36,0,0,0,14.57-11.24,51.21,51.21,0,0,0,9.76-14.67,39.09,39.09,0,0,0,3.35-15.11,34.83,34.83,0,0,0-2.9-14.33,37,37,0,0,0-9-12.46,33.12,33.12,0,0,0-12.84-7.49,25.76,25.76,0,0,0-14.69-.05l-.27-.26,45.74-49.49-22.91-21.17-5.13,5.55,10.41,9.62Zm61.32-33.42a19.54,19.54,0,0,1,10.06-.23,22.21,22.21,0,0,1,9.65,5.58,24.71,24.71,0,0,1,5.36,6.88,14.17,14.17,0,0,1,1.27,8.44,29.68,29.68,0,0,1-4.16,10.83,84.64,84.64,0,0,1-10.85,14,84.8,84.8,0,0,1-13.37,12.16,30.21,30.21,0,0,1-10.57,5,14.15,14.15,0,0,1-8.48-.57,23.74,23.74,0,0,1-7.11-4.63,29.38,29.38,0,0,1-3.15-3.49,18.56,18.56,0,0,1-2.66-4.78,20.4,20.4,0,0,1-1.25-6.17,21.48,21.48,0,0,1,1.14-7.7,43.17,43.17,0,0,1,4.45-9.34,71.1,71.1,0,0,1,8.62-11.08,74.45,74.45,0,0,1,10.66-9.65A33.3,33.3,0,0,1,1027.12,212.74Z"/><path class="cls-2" d="M1056.65,315a54.09,54.09,0,0,0-.31,24.16,66,66,0,0,0,10.81,24.19c1.73,2.49,3.72,5.07,6,7.77s4.65,5.34,7.19,7.95,5.16,5.11,7.86,7.49a99.29,99.29,0,0,0,7.94,6.39l31.5-20.26-3.77-5.43a62.46,62.46,0,0,1-17.23,6.84,31.59,31.59,0,0,1-13.66,0,26.23,26.23,0,0,1-10.92-5.54,50.15,50.15,0,0,1-8.93-10,59.25,59.25,0,0,1-5.62-9.91,30.28,30.28,0,0,1-1.39-21.3,40.07,40.07,0,0,1,6-11.86,85,85,0,0,1,11.56-12.93,163.81,163.81,0,0,1,18-14.24,161.92,161.92,0,0,1,19.9-12,88.36,88.36,0,0,1,16.51-6.46,41.39,41.39,0,0,1,13.56-1.53,32.24,32.24,0,0,1,11.11,2.75,32.83,32.83,0,0,1,9.17,6.24,59.27,59.27,0,0,1,7.67,9.05,49.74,49.74,0,0,1,5.54,10.31,24,24,0,0,1,1.57,10.88,27,27,0,0,1-4.14,11.68q-3.68,6.06-11.65,12.63l3.77,5.44,27.69-20.61q-1.3-4.38-3-8.87t-3.8-8.87q-2.07-4.38-4.36-8.43t-4.66-7.46a66.87,66.87,0,0,0-19.46-19,56.29,56.29,0,0,0-23.73-8.32,66.88,66.88,0,0,0-26.37,2.54,94.81,94.81,0,0,0-27.43,13.53,93.55,93.55,0,0,0-21.7,20.3A62.47,62.47,0,0,0,1056.65,315Z"/><path class="cls-2" d="M1181.27,432a13.45,13.45,0,0,0-5.35,1,10,10,0,0,0-5.36,5.24,9.46,9.46,0,0,0,.2,7.88,12.62,12.62,0,0,0,1.94,3.08,10.27,10.27,0,0,0,3,2.46,9.65,9.65,0,0,0,4,1.1,11.16,11.16,0,0,0,5.06-1,15.92,15.92,0,0,0,6.57-5.3,22.49,22.49,0,0,0,3.75-8.51,33.51,33.51,0,0,0,.47-10.75,44.47,44.47,0,0,0-13.21-26.42,40.35,40.35,0,0,0-13.81-8.41,41.56,41.56,0,0,0-16.06-2.3,47.5,47.5,0,0,0-16.72,3.95,46.46,46.46,0,0,0-13.82,9,40.9,40.9,0,0,0-9.14,12.73A37.79,37.79,0,0,0,1109.5,431a41.12,41.12,0,0,0,3.62,16.91q5.37,12.49,15.44,17.49t24.41,2.21a31,31,0,0,0-.38-3.75,27.14,27.14,0,0,0-.88-3.74,40.86,40.86,0,0,1-11.53.59,25.22,25.22,0,0,1-8.79-2.5,21.05,21.05,0,0,1-6.47-5.09,30,30,0,0,1-6.77-16.12,15.33,15.33,0,0,1,1.92-8.7,28,28,0,0,1,7.86-8.63,73.42,73.42,0,0,1,15.64-8.62q10.85-4.68,18.11-5.74t12,.34a14.65,14.65,0,0,1,7.47,4.71,30.4,30.4,0,0,1,4.47,7.39,37.34,37.34,0,0,1,2.22,7.43,17.89,17.89,0,0,1-.24,8.18A16.5,16.5,0,0,0,1181.27,432Z"/><path class="cls-2" d="M1252.68,519.59l-61.41-9.26,8.61,41.7Zm-11.79,2.23.08.38-38.17,22.91-6.1-29.58Z"/><path class="cls-2" d="M1138,508.08l32.3,4.2,9.43,45.69-28,16.65,7.12,34.51,124.84-79-6.65-32.23-145.94-23.23ZM1278.93,528l-117.16,74-5.2-25.22,28-16.65-10.69-51.76-32.3-4.2-5-24.08,136.93,21.74Z"/><path class="cls-2" d="M1154.44,705.09a36.2,36.2,0,0,1,17.5-3.71l53.41,1.08c10.07.21,33.29.68,34.2-44.22.9-43.93-26.9-48.18-34.45-48.33l-1.93,0-.6,29.22c8.31.75,15.25,2.64,14.92,18.51-.15,7.74-3.22,15.81-10,15.67-8.33-.17-8.85-3.08-10.59-22.09-2.12-19.6-4.49-45.79-32.75-46.36-8.52-.17-30.46,3.06-31.12,35.38-.35,17.42,4.35,24.48,9.81,31.76-2.32-.05-6.21.65-7.78,2Zm4.82-27.59c1.17-.75,5.83-1,8.73-1l2.52.05c-8.09-11.59-13.51-21.19-13.25-34.35.13-6.19.49-33.48,27.39-32.94,22.45.46,25.8,16.4,28.35,43.76,1.7,20.94,4.54,24.48,13.63,24.67,14.71.3,15-16.54,15.15-21.38.39-19.16-13.51-21.19-14.87-21.21l.43-20.71,1.74,0c5.22.11,27,6,26.23,43.13-.84,41-20.77,40.63-30.45,40.43l-52.25-1.06c-7.55-.15-11.64.93-13.79,1.85Z"/><path class="cls-2" d="M1193.55,676.26l13.55.28c-1.48-3.52-2.78-6.26-4.45-19.07l-1.53-10.87c-.84-6.21-4.34-15-15.95-15.23-9.48-.2-15.42,6.07-15.67,18.26C1169.23,663,1177.1,675.93,1193.55,676.26Zm-19.79-26.54c.17-8.51,4.16-14.05,10.93-13.91,10.45.21,11.13,4.87,13.35,19.44,1.34,10.67,1.7,12,3.15,16.71l-8.9-.18C1179.9,671.53,1173.53,661.33,1173.76,649.72Z"/><path class="cls-2" d="M1153.43,715.4l-16.12,64.81c-6.82,27.42-.45,51.55,28.1,58.65,19.91,4.95,32.16-5,37.73-12.16,2.22,7.94,11.15,18.54,23.74,21.67,29.87,7.43,41.1-20.9,45.4-38.18l15.28-61.43Zm114.72,93.76c-2.06,8.27-10.52,42.27-40.76,34.75-13-3.23-18.51-12.19-23.27-24.34-4.78,6.39-16.22,20.3-37.64,15-27.42-6.82-30.5-31.33-25-53.3l15-60.49,125.86,31.3Z"/><path class="cls-2" d="M1161.26,780.18c-2.57,10.33-6.83,27.43,12.71,32.28,19.73,4.91,24-12.18,26.55-22.52l7.85-31.55-39.26-9.77Zm41.9-18.5-6.78,27.24c-2.38,9.58-5.74,23.1-21.34,19.23-15.4-3.84-12-17.36-9.65-26.94l6.77-27.24Z"/><path class="cls-2" d="M1216.2,791.05c-2.34,9.4-6.12,24.61,11.16,28.91,17.47,4.35,21.26-10.87,23.59-20.26l7.2-28.93-34.75-8.65Zm36.74-17-6.12,24.61c-2.2,8.83-5,20.29-18.38,17-13.15-3.27-10.3-14.73-8.11-23.56l6.12-24.61Z"/><path class="cls-2" d="M1114.48,884.87c-5.27,10.35-5.11,26.29,18.35,38.22s36.44,2.67,41.7-7.68,5.11-26.29-18.35-38.22S1119.74,874.52,1114.48,884.87Zm39.68-3.71c21.22,10.79,21,23.52,16.57,32.32s-14.65,16.44-35.88,5.64-21-23.52-16.57-32.32S1132.93,870.37,1154.16,881.16Z"/><path class="cls-2" d="M1109,858.17l7.07,3.6c-10.49,3.13-17.3,10.53-22.56,20.88-11.94,23.47-1.12,49.6,27.35,64.08,34.51,17.55,58.51,2.82,67-13.91,8.16-16.05,5.2-25.6,3.68-31.58l40.2,20.44,13.61-26.74-123.21-62.66ZM1239.5,897l-9.56,18.81-44.35-22.56c5.34,16.4,4.85,25.06-1.56,37.65-5.52,10.88-25.31,30.13-61.2,11.88-18.64-9.47-39.09-31.6-24.79-59.73,8.25-16.22,22.56-19.59,29.14-20.15l.18-.34-12.6-6.41,9.13-18Z"/><path class="cls-2" d="M1126.38,973.66c-33.3-28.68-73.66-25.12-98.3,3.48-31.46,36.52-12.37,71.61,4.06,85.76l21.47-24.93c-9.38-8.09-19.36-25.88-4.7-42.89,9.73-11.29,30.91-18.09,56,3.52s21.5,43.55,10.89,55.87c-9.73,11.3-22.48,13.35-36,5.57l-21,24.34c22.74,19.58,57.8,11.21,77.76-12C1162.26,1042.64,1159.67,1002.34,1126.38,973.66Zm7,96c-24.13,28-58,23.13-68.4,14.16l15.79-18.34c13.46,7.51,29,2.51,38.23-8.2,13.52-15.69,13.87-40.42-11.21-62s-49.61-17.44-62.12-2.92c-19.07,22.15-.69,44.11,1.8,46.26l-15.67,18.19c-5.5-5.77-33.35-38.7-.5-76.83,21.85-25.38,59.45-31.06,92.16-2.88S1156.13,1043.23,1133.39,1069.63Z"/><path class="cls-2" d="M941.85,1056.21C923,1069.8,911.6,1094,928,1120.38l23.71-17.1c-4.87-11-7.27-19.34,4.19-27.61s23.46-1.88,33,11.3c9.62,13.35,13.69,27.6.51,37.11-9.42,6.79-17.54,3.82-23.9-4l-24.33,17.56c14.71,18.74,38.56,23,62.27,5.92,25.44-18.35,29.48-48.48,11.13-73.91S967.75,1037.52,941.85,1056.21Zm59.08,83.88c-18.37,13.25-36.82,14.15-53.68-1.61l17.9-12.91c8.41,8,17.77,8.42,26.72,2,20.88-15.06,4.57-37.67.61-43.16-14.84-20.57-29.66-18.95-39.08-12.15-10.68,7.7-12.34,18-7,29.65l-17,12.23c-10.08-18.27-4.56-40.4,14.91-54.44,19.31-13.93,46.67-15.05,66.6,12.58C1025.66,1092.65,1026.83,1121.41,1000.93,1140.09Z"/><path class="cls-2" d="M892,1093.69a6.22,6.22,0,0,0-3.21,2.84,7.62,7.62,0,0,0-.92,3.76l1.2,35.9-57.26,24.4-25.06-25.72a7.62,7.62,0,0,0-3.39-2,6.26,6.26,0,0,0-4.23.43l-13.36,5.7,105.41,105.85,17.54-7.48L905.34,1088Zm-7.91,120.69L841.92,1171l47.63-20.3,2.06,60.36c.06,1.8.22,3.85.47,6.17s.56,4.82.95,7.54A104.72,104.72,0,0,0,884.07,1214.38Z"/><path class="cls-2" d="M787.46,1214.13a5.15,5.15,0,0,0-3.17-.32,7.9,7.9,0,0,0-4.11,2.43c-1.28,1.34-2.83,2.86-4.63,4.56a39.82,39.82,0,0,1-6.63,4.94,30.47,30.47,0,0,1-10.09,3.6q-9.41,1.85-15.34-3t-8.13-16.13l-1.48-7.55q16.35-3.2,27.13-8t17-10.29q6.19-5.46,8.29-11.37a21.75,21.75,0,0,0,1-11.62,28.3,28.3,0,0,0-4.37-11,22.88,22.88,0,0,0-7.3-6.84,24.33,24.33,0,0,0-9.42-3.06,35.14,35.14,0,0,0-10.81.48,49.82,49.82,0,0,0-9.83,2.91,39.76,39.76,0,0,0-8,4.47,43.42,43.42,0,0,0-6.71,6q-3.08,3.42-6.21,7.58L721,1153.4a4.31,4.31,0,0,0-2.63-2.84,9.14,9.14,0,0,0-4.14,0l-7.5,1.47,12,61.56a49,49,0,0,0,5.09,14.39,32,32,0,0,0,8.7,10.23,30,30,0,0,0,12,5.35,37.27,37.27,0,0,0,14.86-.15,54.18,54.18,0,0,0,19.68-7.79A56.12,56.12,0,0,0,794,1220.78l-4.1-4.82A6.94,6.94,0,0,0,787.46,1214.13Zm-55.68-22.2-3.88-19.86a55,55,0,0,1,4.79-6.55,37.28,37.28,0,0,1,5.48-5.27,32.91,32.91,0,0,1,6.48-3.93,35.69,35.69,0,0,1,8-2.5,23,23,0,0,1,6.33-.39,13.47,13.47,0,0,1,5.45,1.61,12.72,12.72,0,0,1,4.21,3.89,16.51,16.51,0,0,1,2.52,6.35,12.42,12.42,0,0,1-.9,7.72,18.88,18.88,0,0,1-6.36,7.09,56.53,56.53,0,0,1-12.54,6.47A116.61,116.61,0,0,1,731.78,1191.93Z"/><path class="cls-2" d="M615.26,1156.93a44.08,44.08,0,0,0-15.39,7.9,34.27,34.27,0,0,0-9.64,12.37,38.91,38.91,0,0,0-3.44,16q-.16,13,7.49,21t22.8,11.22a45.2,45.2,0,0,0-11.53,5.09,34.09,34.09,0,0,0-8.22,7.16,28.84,28.84,0,0,0-5,8.74,31.1,31.1,0,0,0-1.72,9.86,38.74,38.74,0,0,0,2.67,15.18A28.29,28.29,0,0,0,602,1283a42.88,42.88,0,0,0,15.11,7.35,84.53,84.53,0,0,0,22,2.78l44.23.54L685,1154.93l-49.07-.6A68.72,68.72,0,0,0,615.26,1156.93Zm49.47,121.65-25.45-.31q-15.48-.18-22.77-6t-7.14-18a24.72,24.72,0,0,1,2-9.61,18.91,18.91,0,0,1,5.75-7.43,27.83,27.83,0,0,1,9.69-4.72,48.11,48.11,0,0,1,13.77-1.58l24.77.31Zm1.34-109-.6,48.29-29.9-.36q-15.39-.19-22.91-6.53t-7.39-17.08a28.21,28.21,0,0,1,1.87-10.09,20,20,0,0,1,5.56-7.87,25.84,25.84,0,0,1,9.55-5.06,45.42,45.42,0,0,1,13.81-1.67Z"/><path class="cls-2" d="M553.48,1150.29l-2.86,8.47a36.73,36.73,0,0,0-9-12.6q-5.62-5.09-14.87-7.23a38.75,38.75,0,0,0-33.63,7.26A48.86,48.86,0,0,0,481.36,1160a67.7,67.7,0,0,0-7.38,19,80.08,80.08,0,0,0-2.32,21.57,46,46,0,0,0,3.72,17,31.06,31.06,0,0,0,9.25,11.93,36.17,36.17,0,0,0,14.27,6.59,37.06,37.06,0,0,0,18.56-.12,50.07,50.07,0,0,0,16.19-7.92L520.4,1285.2l16.88,3.91,32.21-138.89-10.85-2.51A4.13,4.13,0,0,0,553.48,1150.29Zm-16.92,65.23a42.48,42.48,0,0,1-13.83,8,27.85,27.85,0,0,1-15.26.44,26.08,26.08,0,0,1-9.81-4.37,19,19,0,0,1-6.19-8,32.1,32.1,0,0,1-2.21-12.09,68.92,68.92,0,0,1,2.07-16.41q4.08-17.62,13.46-25.49t22.76-4.76a29.83,29.83,0,0,1,11.72,5.4,27,27,0,0,1,8,11.1Z"/><path class="cls-2" d="M440.3,1115.38A69,69,0,0,0,418,1098.94q-15.43-7.41-28.78-7.69a59.44,59.44,0,0,0-25.29,4.94l3.16,10.43a3.91,3.91,0,0,0,2,2.35,5,5,0,0,0,3.51.07,61.38,61.38,0,0,1,9-2,38.8,38.8,0,0,1,8.76-.14,45.41,45.41,0,0,1,9.24,1.91A76.29,76.29,0,0,1,410,1113a48.77,48.77,0,0,1,15.51,11.52,43,43,0,0,1,9.12,16.23,51,51,0,0,1,1.73,19.89,66.74,66.74,0,0,1-6.65,22.47A65.67,65.67,0,0,1,416.5,1202a49.52,49.52,0,0,1-16.84,11A45.56,45.56,0,0,1,380.6,1216a52.91,52.91,0,0,1-20-5.36,58.52,58.52,0,0,1-9.46-5.56,52,52,0,0,1-6.52-5.65,40.17,40.17,0,0,1-4.33-5.3c-1.12-1.69-2.07-3.21-2.85-4.59s-1.44-2.54-2-3.49a4.87,4.87,0,0,0-2-2,4.18,4.18,0,0,0-2.54-.52,6.35,6.35,0,0,0-2.08.77l-9.23,5.13a66.89,66.89,0,0,0,12.19,20.12q7.95,9.07,21.73,15.69a75,75,0,0,0,27.77,7.57,63.82,63.82,0,0,0,26.15-3.61A65.58,65.58,0,0,0,430,1215.14a78.75,78.75,0,0,0,17-23.72,83.62,83.62,0,0,0,8.16-28,65.48,65.48,0,0,0-2.35-26A59.55,59.55,0,0,0,440.3,1115.38Z"/><path class="cls-2" d="M336.68,1111.77a63.38,63.38,0,0,0,10.32-19,46.66,46.66,0,0,0,2.33-18.13,38.89,38.89,0,0,0-4.94-16.12,42.82,42.82,0,0,0-11.52-13.06,56.76,56.76,0,0,0-18.29-9.38,37.17,37.17,0,0,0-19.65-.56l0,7.93a3.65,3.65,0,0,0,1.62,3.31,5.39,5.39,0,0,0,3.68.92,49.84,49.84,0,0,1,5.56,0,31.43,31.43,0,0,1,7.41,1.46,30.2,30.2,0,0,1,9.15,5.09,27.64,27.64,0,0,1,7.93,9.15,24.32,24.32,0,0,1,2.78,11.12,34.34,34.34,0,0,1-2.51,12.7,56.23,56.23,0,0,1-8,13.82,58.09,58.09,0,0,1-10.83,11.09A33.58,33.58,0,0,1,300.2,1118a24.71,24.71,0,0,1-11.84.28,33.63,33.63,0,0,1-18.18-12.16,36.16,36.16,0,0,1-3.42-6,46.63,46.63,0,0,1-1.81-4.73,5.53,5.53,0,0,0-1.77-2.87,3.68,3.68,0,0,0-2.12-.89,7.9,7.9,0,0,0-2.23.37l-7.38,2.17a43.59,43.59,0,0,0,5.44,16,46.73,46.73,0,0,0,12.44,13.69,48.94,48.94,0,0,0,18,9,40.38,40.38,0,0,0,17.88.42A45.73,45.73,0,0,0,322,1126,64.42,64.42,0,0,0,336.68,1111.77Z"/><path class="cls-2" d="M267.39,1053a12.36,12.36,0,0,0,3.8,1.8,3.76,3.76,0,0,0,3.16-1.24,6.45,6.45,0,0,0,2-3.17,3.55,3.55,0,0,0-.89-3.48q-1.15-1.3-7.48-5.54-4.21-2.71-12.5-8.58,3.51-1.29,14.18-5.44t18-7.27q6.75-2.87,8.72-3.58,1.27-.6,8-3.42t8.28-4.23a4,4,0,0,0,1.5-3.26,5.57,5.57,0,0,0-1.5-3.46,5.68,5.68,0,0,0-4.2-2,9.35,9.35,0,0,0-4.95,1.28q-10.49,5.4-30.77,14.3l-15.19,6.21-11.25,4.52-8.89-7.12q-21.94-17.8-30.68-25.33,1.35-2,5.78-8.22t7.69-10.15q7.28-9,12.39-15.5t8.9-12.14a14.25,14.25,0,0,0,1.27-4,4.39,4.39,0,0,0-.78-4,5.43,5.43,0,0,0-3.46-1.85,4.25,4.25,0,0,0-3.49,1,46,46,0,0,0-3.27,4.19q-7.84,11.86-20.19,27.43-5.34,6.81-8.08,11,.15-.12-4.33,5.91-1.17-1-4.65-3.64c-2.31-1.74-4.06-2.7-5.24-2.86a5.24,5.24,0,0,0-3,.16,7.27,7.27,0,0,0-2.62,1.42q-2.76,2.43-2,5.09a2.27,2.27,0,0,0,1.34,1.66,11.2,11.2,0,0,0,2.5.63,8.13,8.13,0,0,1,2.42.7l2.39,1.38a26.69,26.69,0,0,1,4.07,3q-2.28,3.57-9.21,14.87t-10,17.42a144.13,144.13,0,0,0-8.23,19q-2.92,8.66-.62,11.27a6.86,6.86,0,0,0,2.22,1.78,4.88,4.88,0,0,0,2.59.3,14.73,14.73,0,0,1,2.07-.15,19.74,19.74,0,0,0,3.75,6,2.69,2.69,0,0,0,2.76.79,29.16,29.16,0,0,0,4.41-1.45q3.53-1.56,27.82-13.25l9.32-4.37q5.24-2.55,8.89-4.12c2.44-1,4.47-1.92,6.06-2.64q3.54-1.85,9-4.12,2.49,1.93,9.24,6.95T267.39,1053Zm-73.75-2.72a98.44,98.44,0,0,1-13.72,4.65l-5.19,1.74q-.47-3.47,2.36-11.65a108.48,108.48,0,0,1,6.4-15q3.42-6.65,9.71-16.35l8.25-12.73,4,3.4,14.49,12,17.91,14.39Q207.16,1044.48,193.64,1050.24Z"/><path class="cls-2" d="M193.36,948q15.15-.64,21.86-4.49a14.71,14.71,0,0,0,7.06-7.93q1.68-4.87-1.4-10.25-6.34-11.08-20.43-16.41a102.86,102.86,0,0,0-27.25-6.48Q160,901.27,143,901q.53-3,4.39-5.19l6.48-3.49q20.44-11,24.48-13.34a24,24,0,0,0,7.37-6.23c1.77-2.35,2.12-4.48,1-6.38-.64-1.12-2.16-1.75-4.53-1.87a10.12,10.12,0,0,0-5.58,1,4.05,4.05,0,0,0-1.43,2.38,5.38,5.38,0,0,1-1.67,2.74c-2,1.26-4.63,2.95-8,5s-6.92,4.27-10.56,6.49l-13.37,8.21q-8.09,5-10.68,6.67c-2.89,2-4,3.55-3.28,4.78l2.47,2.38A21.68,21.68,0,0,0,118.48,907a14,14,0,0,0-5.73,6,17.37,17.37,0,0,0-1.92,7.57,12.55,12.55,0,0,0,1.5,6.51,17.89,17.89,0,0,0,5.51,5.54,64,64,0,0,0,12.48,6,145.14,145.14,0,0,0,30.51,7.52A175.49,175.49,0,0,0,193.36,948Zm-34-10.24a134.14,134.14,0,0,1-26.19-6.2q-9.47-3.28-11.87-7.48a7.94,7.94,0,0,1-.62-7.12,11,11,0,0,1,4.94-5.61,33.62,33.62,0,0,1,12.07-4.23q18.22.27,31.35,1.57a91.14,91.14,0,0,1,24.65,5.86q11.53,4.56,16.72,13.63,2.68,4.7-2.35,7.58-6,3.47-19.64,3.88A163.06,163.06,0,0,1,159.41,937.76Z"/><path class="cls-2" d="M155.11,832.62a38.71,38.71,0,0,1,10.68-1.53,66.07,66.07,0,0,0,6.8-.31,3.51,3.51,0,0,0,2.31-2.35,5.38,5.38,0,0,0,.12-3.49c-.54-1.72-1.28-2.77-2.21-3.16a11,11,0,0,0-4.22-.5q-8.51.65-21.26,4.65Q142,827.61,136,829.81c-4,1.46-6.93,2.48-8.78,3.06l-6.9,2.57c-.68-.87-2-2.63-3.8-5.3s-3.89-5.4-6.13-8.22q-3-3.72-8-9.44c-1-1-2.77-3-5.29-5.85a66.08,66.08,0,0,1-12.64-23.42,22,22,0,0,1-1.08-9.6,6.15,6.15,0,0,1,4.47-5.47,26.29,26.29,0,0,1,14.88-.11,112.16,112.16,0,0,1,18.85,7.37,119.72,119.72,0,0,1,15.88,9.52,95.85,95.85,0,0,1,14.31,11.64,28.32,28.32,0,0,1,4.77,6.81,36.77,36.77,0,0,0,3.11,4.71,16.92,16.92,0,0,0,5.27,4.84,7.13,7.13,0,0,0,5.78.62,3.73,3.73,0,0,0,2.61-2.34,5.63,5.63,0,0,0,0-3.56q-1.17-3.69-7.09-9.64a136.61,136.61,0,0,0-13.42-11.71,155.87,155.87,0,0,0-22.4-14.47,181,181,0,0,0-25.8-11.38q-11-3.65-19.85-.86-8.31,2.61-9.9,9.81a30.16,30.16,0,0,0,1.07,15.69,109.83,109.83,0,0,0,5.64,14.06Q58.56,786.86,42.3,792q-6.82,2.14-8.56,9.89t1.35,17.53a122,122,0,0,0,8.41,20.29,235.17,235.17,0,0,0,13,21.47A218.69,218.69,0,0,0,74.79,885q9.43,10.63,12.94,9.53a4.85,4.85,0,0,0,2.79-2.09,3.48,3.48,0,0,0,.48-3c-.34-1.11-2-2.9-4.92-5.35a52.4,52.4,0,0,1-7.17-6.68,131.59,131.59,0,0,1-12.28-15.83q2.7-.43,11.15-2.28t13.81-3.53q7-2.21,18.86-7.14l8.32-3.22Q140.7,837.15,155.11,832.62ZM82.44,850q-8.49,2.67-22,3.48a125.91,125.91,0,0,1-9.35-16.54,136.79,136.79,0,0,1-7.74-18.48q-2.25-7.2-1.28-12.17a7.66,7.66,0,0,1,5.4-6.37q12.57-3.95,28,4T103.84,827q2.58,3,5.18,6.8a36.45,36.45,0,0,1,3.36,5.54Q94.44,846.19,82.44,850Z"/><path class="cls-2" d="M128.71,726.69a8.36,8.36,0,0,0,4.2-1.94c1.51-1.18,2.22-2.22,2.14-3.12q-.47-5-7.35-5.93A115.33,115.33,0,0,1,102.87,710a127.92,127.92,0,0,1-20.46-9,76.3,76.3,0,0,1-18.62-14.22q-7.34-7.87-8.08-16c-.23-2.44.22-4.27,1.34-5.47s2.9-1.92,5.34-2.15q9.26-.86,22,4.19a90.21,90.21,0,0,1,24.61,15,79.44,79.44,0,0,1,18.92,22.74,14.82,14.82,0,0,0,4.17,5.16,6.56,6.56,0,0,0,4.41,1.44,5.36,5.36,0,0,0,3.54-1.69,4.39,4.39,0,0,0,1.22-3.61q-.39-4.25-7.53-12.13a139.72,139.72,0,0,0-37.3-30.19q-20.58-11.31-37-9.8-7.32.67-10.83,4.79a13.08,13.08,0,0,0-3,10.09q.81,8.67,9.21,18.59a86,86,0,0,0,21.57,17.84A149.94,149.94,0,0,0,92,713.85a80.33,80.33,0,0,0,14.88,5.33q-1.27.9-13.35,2.79-24.54,3.63-70.43,7.87l-10.21.95a21.16,21.16,0,0,0-9.16,2.88C1,735.28-.18,737.17,0,739.36q.38,4,4.81,3.64a15.2,15.2,0,0,0,2.39-.42c.83-.2,1.62-.41,2.37-.61l2-.57a12.78,12.78,0,0,1,2.2-.4q6.12-1.14,49.35-6.7T128.71,726.69Z"/><path class="cls-2" d="M41.78,607.65a162.19,162.19,0,0,0,28.06,13.6q16.3,6.24,29.61,7.53,19.45,1.89,30.44-8.14t12.67-27.37a49.11,49.11,0,0,0-7.41-31q-9-14.67-19.18-23.83-4.68-4-6.6-4.14a4.13,4.13,0,0,0-2.16.18,1.75,1.75,0,0,0-.73,1.48c-.07.77,1.13,2.06,3.62,3.85a45.5,45.5,0,0,1,4.07,3.12,126,126,0,0,1,15.15,24.32,49.69,49.69,0,0,1,4.28,26.18,27.9,27.9,0,0,1-18.1,24.21,34.91,34.91,0,0,1-16.14,2,110.57,110.57,0,0,1-25.7-5.79A141.48,141.48,0,0,1,50.17,603.4q-25.6-14.73-24.27-28.6a9.76,9.76,0,0,1,3-6.13,11.67,11.67,0,0,1,6.45-3.26,34.39,34.39,0,0,1,9.17-.28,10.94,10.94,0,0,1,3.3,1,11.5,11.5,0,0,0,2.54.92c1.15.11,1.78-.34,1.88-1.37.05-.51-.65-1.36-2.09-2.54a27.72,27.72,0,0,0-5.41-3.34,19.35,19.35,0,0,0-6.53-1.9Q29.37,557,23,561t-7.21,12.23q-.83,8.49,6.65,17.66A80,80,0,0,0,41.78,607.65Z"/><path class="cls-2" d="M96.76,524.16q16.63,11.25,28.6,14.44a24,24,0,0,0,15.44-.79q7.39-2.92,9.29-10,2.25-8.41-2.05-17.88t-13.48-22.32a116,116,0,0,0-8.4-10.56q-4.77-5.38-5.9-5.68-1.68-.45-2.28,1.8c-.13.49.42,1.54,1.67,3.14s2,2.58,2.32,2.93a191.27,191.27,0,0,1,13.58,20.45,57.9,57.9,0,0,1,5.65,12.62,21.47,21.47,0,0,1,.07,11.74q-2.19,8.24-14.54,4.94-8.79-2.34-23.57-11.9a117.08,117.08,0,0,1-24.84-21q-10-11.5-7.71-20.29.3-1.12,2-1.26a37.46,37.46,0,0,1,6.75.6,27.88,27.88,0,0,0,5.44.65,2.48,2.48,0,0,0,2.7-1.89c.17-.62-1.08-1.59-3.73-2.9a40.05,40.05,0,0,0-7.17-2.81,11.31,11.31,0,0,0-5.45.15,19.69,19.69,0,0,0-5.33,2A10.06,10.06,0,0,0,61,476.55q-2.59,9.74,8.28,23.05A126.61,126.61,0,0,0,96.76,524.16Z"/><path class="cls-2" d="M319.68,461.43l52.87,60.68,5.12-8.8-16.75-18.89,13.58-23.36,24.81,5L404.6,467l-79-15.81Zm10.42-.61c4.38,1.24,8.86,2.53,14,3.57L366.83,469,355.29,488.8,340,471.27c-3.27-3.6-6.65-7-10-10.26Z"/><path class="cls-2" d="M430,439l6-6.78a76.94,76.94,0,0,1-10.43-8l-15.35-13.54c-8.22-7.26-19.48-11.76-30.55.78a34,34,0,0,0-8.25,16.7l6.41,2.64a27.26,27.26,0,0,1,6.38-13.37c7.41-8.39,14.33-3.94,17.72-.95l.85.75c-14.07,15.78-16.43,29.38-6.51,38.14,5.93,5.23,15.52,6.16,22.85-2.15a20.33,20.33,0,0,0,5-17.93l.23-.26Zm-14.67,7.41c-3.37,3.81-8.5,5-13.33.75-8-7-1.26-17.55,6.09-25.53l7.12,6.28a10.16,10.16,0,0,1,2,2.52A13.62,13.62,0,0,1,415.33,446.41Z"/><path class="cls-2" d="M431.17,343.93c-6.11-.09-12.14,2.48-19.88,8.55a94.84,94.84,0,0,0-13.17,12.33l46.24,59a116.06,116.06,0,0,0,12.57-8.7c9.79-7.68,15.16-14.76,16.34-21.86a20.57,20.57,0,0,0-4.34-16c-7-8.9-17.35-8.38-24.16-5.34l-.14-.18c4.5-7.27,4.35-15.34-.18-21.12C440.75,345.9,436.1,343.81,431.17,343.93ZM410,364a42.74,42.74,0,0,1,6.44-5.9c7.83-6.14,15.33-7.56,20.84-.53,4.53,5.78,3.07,13.82-5.11,20.23l-7,5.51Zm50.7,19.6c6.83,8.72,1.75,17.44-6.26,23.72a53.29,53.29,0,0,1-6.77,4.74l-17.93-22.87,6.41-5C444.57,377.53,454.25,375.4,460.67,383.59Z"/><path class="cls-2" d="M514.9,378.53c10.89-5.5,17.51-19.74,8.69-37.2-7.39-14.88-21.07-20.64-33.18-14.53-7.87,4-11.74,10.37-12.11,17.4l-.2.1-15.5-30.68-8.78,4.43,29.82,59c2.19,4.34,4.49,9.39,6,12.82l7.67-3.87-3.68-8.28.31-.15C500.8,382.23,507.83,382.1,514.9,378.53Zm-24-9.81a18.87,18.87,0,0,1-2-3l-4.43-8.78a19.24,19.24,0,0,1-1.33-3.88c-1.6-7.68,2-14.68,8-17.74,9.48-4.79,18.76,1,23.7,10.83,5.66,11.2,3.93,21.58-5.35,26.27A15.35,15.35,0,0,1,490.94,368.72Z"/><path class="cls-2" d="M560.9,287.43a35.94,35.94,0,0,1,15.67-1l.19-8.37c-2.86-.62-9.18-1-18.34,1.46-22.81,6.19-34.19,26-27.94,49.05,6.54,24.12,25.69,33,46.43,27.36,8.94-2.42,15.46-6.06,18.47-8.76l-4-7c-3.32,2.89-8.89,5.68-14.67,7.25-17.9,4.86-31.4-3.9-36.28-21.91C535.19,306.24,543.66,292.11,560.9,287.43Z"/><path class="cls-2" d="M686.56,349.56l33.72,4,.52-4.38-10.86-1.28-17.81-79.25-4.33-.51-37.46,72.75-9.73-1.14-1-3a28.35,28.35,0,0,1-11.93,3.76c-10.81.94-19.6-6.14-20.69-18.75-1-11.38,5-21.2,17.48-22.28,5.41-.47,9.23.45,11.71,1.59l1.59-7.85a33.15,33.15,0,0,0-14-1.63c-17.8,1.54-28.24,14.7-26.78,31.49s13.11,26.89,29.55,25.47a37.68,37.68,0,0,0,14.95-4.24l24.56,2.89.52-4.39-11-1.29,11.47-22.39,25.88,3,5.47,24.38-11.4-1.34Zm-17.21-34.71,15.21-29.56.22,0,7.22,32.2Z"/><path class="cls-2" d="M757,334.82c-.44,1.25-.94,2.65-1.51,4.21q-13.53-4.27-22-2.89t-10.87,8.66a13.06,13.06,0,0,0-.72,5.09,10.7,10.7,0,0,0,1.35,4.62,12.76,12.76,0,0,0,3.42,3.86,18.49,18.49,0,0,0,5.41,2.79,21.39,21.39,0,0,0,4,.92,16.91,16.91,0,0,0,4.15.06,16.21,16.21,0,0,0,4.26-1.06,20.18,20.18,0,0,0,4.3-2.4l.26.09a9.63,9.63,0,0,0-.32,2.86,5,5,0,0,0,.83,2.55,7.57,7.57,0,0,0,2.42,2.24,20.06,20.06,0,0,0,4.43,2c.73.25,1.73.55,3,.9a32.66,32.66,0,0,0,4.26.86l1.3-3.88a24.9,24.9,0,0,1-3.55-.85,6,6,0,0,1-2.23-1.18,2.68,2.68,0,0,1-.81-1.73,7.83,7.83,0,0,1,.3-2.64c.28-1.05.68-2.34,1.2-3.88s1.1-3.23,1.78-5.19,1.36-3.9,2-5.81,1.3-3.65,1.85-5.23,1-2.72,1.18-3.42a22.14,22.14,0,0,0,1.35-7.36,11,11,0,0,0-1.51-5.54,12.71,12.71,0,0,0-4.1-4.09,28.62,28.62,0,0,0-6.42-3,32.77,32.77,0,0,0-8.45-1.8,20.46,20.46,0,0,0-6.66.55,11.79,11.79,0,0,0-4.71,2.4,8.56,8.56,0,0,0-2.58,3.76,6.13,6.13,0,0,0-.36,2.53,5.3,5.3,0,0,0,.61,2.1,4.65,4.65,0,0,0,1.39,1.58,7.22,7.22,0,0,0,1.93,1,5.43,5.43,0,0,0,4.37-.16,5.32,5.32,0,0,0,2.64-3.19,6.65,6.65,0,0,0,.29-2.84,8.52,8.52,0,0,0-1-3.16,11.83,11.83,0,0,1,4.2-.45,19.76,19.76,0,0,1,5.26,1.07c2.83,1,4.68,2.29,5.56,4s.78,4.16-.29,7.33C757.84,332.33,757.41,333.57,757,334.82ZM752.43,348a15.37,15.37,0,0,1-3.27,5.82,12.67,12.67,0,0,1-4.33,3.06,12.34,12.34,0,0,1-8.4.4,6.13,6.13,0,0,1-4-3.59c-.68-1.72-.56-4,.36-6.67a12.59,12.59,0,0,1,2.09-4,6.8,6.8,0,0,1,3.66-2.23,16.5,16.5,0,0,1,6.11-.15,59.27,59.27,0,0,1,9.5,2.24Z"/><path class="cls-2" d="M820.86,394a17.66,17.66,0,0,0,8.16-3.58,23.47,23.47,0,0,0,5.55-6.45,21.05,21.05,0,0,0,2.52-6.52,15.58,15.58,0,0,0-.19-6.75,19.94,19.94,0,0,0-3.33-6.89,36.47,36.47,0,0,0-6.84-7l.11-.19a30.66,30.66,0,0,0,8.5,1.37,20.19,20.19,0,0,0,7-1.11,16.94,16.94,0,0,0,5.46-3.18,19.15,19.15,0,0,0,4-4.82,17.5,17.5,0,0,0,2.36-7.18,15,15,0,0,0-1.46-7.75,27.54,27.54,0,0,0-6.11-8.16A59.62,59.62,0,0,0,835,317.45l-28.62-16.68-2.23,3.82,9.54,5.56-35.93,61.68-9.54-5.56L766,370.08l29.81,17.37a51.4,51.4,0,0,0,14.08,6A27.53,27.53,0,0,0,820.86,394ZM823,315.57l9.15,5.33a41.66,41.66,0,0,1,7.92,5.67,13.5,13.5,0,0,1,3.64,5.31,9.39,9.39,0,0,1,.15,5.46,29,29,0,0,1-7.76,12.54,10.91,10.91,0,0,1-6,2.61,17.49,17.49,0,0,1-7.62-1.18,62.58,62.58,0,0,1-10-4.85l-5.63-3.27Zm-25.73,67.62-10.21-5.95L804.67,347l7.49,4.37a58.24,58.24,0,0,1,9.83,6.87,17.35,17.35,0,0,1,4.69,6.31,10.49,10.49,0,0,1,.42,6.41,27.32,27.32,0,0,1-3.07,7.19,29.09,29.09,0,0,1-5.15,6.75,11.77,11.77,0,0,1-5.74,3,14.42,14.42,0,0,1-7-.6A43.94,43.94,0,0,1,797.26,383.19Z"/><path class="cls-2" d="M838.28,417.07l6.07-3.48.25.22a15.44,15.44,0,0,0,.35,8.86,17.66,17.66,0,0,0,4.73,7,21,21,0,0,0,7.44,4.47,21.4,21.4,0,0,0,8.6,1.1,24.13,24.13,0,0,0,8.95-2.56,29.75,29.75,0,0,0,8.51-6.57,30.09,30.09,0,0,0,5.69-8.57,22.84,22.84,0,0,0,2-8.83,20.48,20.48,0,0,0-1.7-8.37,21.74,21.74,0,0,0-5.27-7.27,19.35,19.35,0,0,0-7.5-4.37,15.08,15.08,0,0,0-8.58,0l-.16-.15,26.71-28.92-13.39-12.36-3,3.25,6.08,5.62L832.6,411.83Zm10.21-4.13a25.43,25.43,0,0,1,2.59-5.46,41.47,41.47,0,0,1,5-6.47,43.17,43.17,0,0,1,6.22-5.64,19.31,19.31,0,0,1,6.07-3.07,11.41,11.41,0,0,1,5.88-.14,12.88,12.88,0,0,1,5.63,3.26,14.16,14.16,0,0,1,3.13,4,8.29,8.29,0,0,1,.75,4.93,17.32,17.32,0,0,1-2.43,6.33A61.11,61.11,0,0,1,867.23,426a17.49,17.49,0,0,1-6.17,2.94,8.23,8.23,0,0,1-5-.33,14,14,0,0,1-4.15-2.7,16.54,16.54,0,0,1-1.84-2,11.07,11.07,0,0,1-1.56-2.79,11.8,11.8,0,0,1-.72-3.61A12.51,12.51,0,0,1,848.49,412.94Z"/><path class="cls-2" d="M966.77,442.66q-1.2-2.55-2.54-4.92c-.9-1.57-1.81-3-2.73-4.36a39.2,39.2,0,0,0-11.37-11.09,33,33,0,0,0-13.86-4.85,39,39,0,0,0-15.4,1.49,60.06,60.06,0,0,0-28.69,19.76,36.58,36.58,0,0,0-6.5,13.33,31.67,31.67,0,0,0-.18,14.11,38.69,38.69,0,0,0,6.32,14.13q1.51,2.17,3.49,4.53t4.2,4.65q2.22,2.28,4.59,4.37a56.17,56.17,0,0,0,4.64,3.73l18.39-11.84-2.2-3.17a36.53,36.53,0,0,1-10.06,4,18.5,18.5,0,0,1-8,0,15.4,15.4,0,0,1-6.38-3.23,29.35,29.35,0,0,1-5.22-5.82,34.41,34.41,0,0,1-3.28-5.79,18.13,18.13,0,0,1-1.54-6,18.45,18.45,0,0,1,.72-6.42,23.74,23.74,0,0,1,3.49-6.93,50.05,50.05,0,0,1,6.75-7.55,108.71,108.71,0,0,1,22.14-15.35,52.22,52.22,0,0,1,9.65-3.78,24,24,0,0,1,7.91-.89,18.93,18.93,0,0,1,6.5,1.6A19.43,19.43,0,0,1,953,430a35,35,0,0,1,4.48,5.29,28.48,28.48,0,0,1,3.24,6,14.07,14.07,0,0,1,.92,6.35,15.76,15.76,0,0,1-2.42,6.83,30.45,30.45,0,0,1-6.8,7.38l2.21,3.17,16.17-12c-.52-1.7-1.11-3.43-1.79-5.18S967.57,444.37,966.77,442.66Z"/><path class="cls-2" d="M958.48,520.32a8,8,0,0,0-3.13.56,5.84,5.84,0,0,0-3.13,3.07,5.53,5.53,0,0,0,.12,4.6,7.12,7.12,0,0,0,1.14,1.8,5.8,5.8,0,0,0,1.76,1.43,5.6,5.6,0,0,0,2.35.65,6.51,6.51,0,0,0,2.95-.61,9.34,9.34,0,0,0,3.84-3.1,13.06,13.06,0,0,0,2.18-5,19.24,19.24,0,0,0,.28-6.27,25.88,25.88,0,0,0-7.72-15.43,23.44,23.44,0,0,0-8.07-4.92,24.25,24.25,0,0,0-9.38-1.34,28,28,0,0,0-9.77,2.31,27.13,27.13,0,0,0-8.06,5.28,23.76,23.76,0,0,0-5.34,7.43,22.36,22.36,0,0,0-2,8.95,24.19,24.19,0,0,0,2.12,9.88q3.15,7.3,9,10.21T942,541.14a16.92,16.92,0,0,0-.22-2.19,14.14,14.14,0,0,0-.52-2.18,23.65,23.65,0,0,1-6.73.34,14.87,14.87,0,0,1-5.14-1.45,12.47,12.47,0,0,1-3.77-3,16.4,16.4,0,0,1-2.6-4.23,16.73,16.73,0,0,1-1.36-5.18,9,9,0,0,1,1.12-5.08,16.31,16.31,0,0,1,4.59-5,42.26,42.26,0,0,1,9.13-5A44.65,44.65,0,0,1,947,504.75a16.67,16.67,0,0,1,7,.2,8.61,8.61,0,0,1,4.37,2.74A17.77,17.77,0,0,1,961,512a21.85,21.85,0,0,1,1.3,4.34,10.41,10.41,0,0,1-.14,4.78A9.46,9.46,0,0,0,958.48,520.32Z"/><path class="cls-2" d="M969.37,590.4l30.82-19-35.86-5.39Zm24-17.43-22.28,13.39-3.58-17.27,25.82,3.66Z"/><path class="cls-2" d="M1014.43,558.8,929.2,545.26l4,19.48,18.86,2.45,5.52,26.68-16.34,9.74,4.17,20.14,72.89-46.13Zm-70.36,46.07,16.35-9.73-6.26-30.22-18.86-2.45-2.91-14.06,80,12.66,3.17,15.28L947.12,619.6Z"/><path class="cls-2" d="M965.7,663l7.91.15c-.86-2-1.62-3.65-2.6-11.13l-.89-6.35c-.5-3.63-2.54-8.76-9.33-8.89-5.54-.12-9,3.55-9.14,10.67C951.49,655.22,956.09,662.78,965.7,663Zm-5.19-23.63c6.11.12,6.51,2.84,7.81,11.35.78,6.24,1,7,1.84,9.76l-5.2-.1c-7.24-.14-11-6.1-10.83-12.88C954.23,642.49,956.56,639.26,960.51,639.34Z"/><path class="cls-2" d="M942.86,679.81a21.23,21.23,0,0,1,10.22-2.17l31.2.63c5.88.11,19.45.38,20-25.85.51-25.66-15.73-28.13-20.14-28.22l-1.13,0-.34,17.07c4.86.44,8.91,1.54,8.72,10.8-.09,4.53-1.88,9.24-5.84,9.16-4.86-.09-5.16-1.8-6.18-12.9-1.25-11.45-2.64-26.74-19.14-27.07-5-.1-17.8,1.79-18.17,20.67-.2,10.18,2.54,14.3,5.74,18.55a8.47,8.47,0,0,0-4.55,1.15Zm2.81-16.11c.68-.44,3.4-.61,5.1-.58l1.47,0c-4.73-6.77-7.9-12.37-7.75-20.06.08-3.62.28-19.56,16-19.24,13.12.26,15.08,9.57,16.57,25.55,1,12.23,2.66,14.3,8,14.4,8.59.18,8.79-9.66,8.84-12.49.23-11.19-7.89-12.37-8.68-12.38l.24-12.1,1,0c3,.06,15.76,3.48,15.33,25.19-.48,24-12.12,23.73-17.78,23.62l-30.52-.61c-4.41-.09-6.8.54-8.05,1.08Z"/><path class="cls-2" d="M946.85,723.67c-1.5,6-4,16,7.43,18.86s14-7.12,15.5-13.16l4.58-18.43-22.93-5.7Zm24.47-10.81-4,15.91c-1.39,5.6-3.35,13.5-12.46,11.23s-7-10.13-5.64-15.73l4-15.91Z"/><path class="cls-2" d="M1011.7,741.18l8.91-35.88-78.34-19.46-9.4,37.85c-4,16-.26,30.11,16.42,34.26,11.63,2.89,18.78-2.91,22-7.11,1.3,4.63,6.52,10.82,13.87,12.65C1002.63,767.82,1009.19,751.28,1011.7,741.18Zm-26.21,19.7c-7.57-1.88-10.82-7.11-13.6-14.21-2.79,3.73-9.47,11.86-22,8.75-16-4-17.83-18.29-14.64-31.13L944.06,689l73.51,18.27-8.28,33.35C1008.09,745.41,1003.15,765.27,985.49,760.88Z"/><path class="cls-2" d="M978.94,730c-1.36,5.48-3.57,14.37,6.53,16.88s12.41-6.36,13.77-11.84l4.2-16.9-20.3-5Zm21.46-9.94-3.57,14.38c-1.28,5.16-3,11.85-10.74,9.91s-6-8.6-4.73-13.75l3.57-14.38Z"/><path class="cls-2" d="M943.91,780.32c-13.71-7-21.27-1.55-24.35,4.5s-3,15.35,10.73,22.31,21.28,1.56,24.35-4.49S957.62,787.28,943.91,780.32Zm8.51,21.19c-2.61,5.14-8.55,9.6-20.95,3.3s-12.3-13.73-9.69-18.87,8.56-9.6,21-3.3S955,796.37,952.42,801.51Z"/><path class="cls-2" d="M996,790.67,924,754.1l-7.68,15.12,4.13,2.1c-6.13,1.83-10.1,6.15-13.18,12.2-7,13.71-.64,29,16,37.42,20.16,10.24,34.18,1.64,39.14-8.14,4.77-9.37,3-14.95,2.14-18.44L988,806.29Zm-34.88-1c3.12,9.58,2.83,14.64-.9,22-3.23,6.35-14.78,17.61-35.75,7-10.88-5.53-22.84-18.45-14.49-34.88A21,21,0,0,1,927,772l.1-.2L919.72,768l5.33-10.48,67.53,34.31-5.58,11Z"/><path class="cls-2" d="M899.38,887.11l-12.25,14.22c13.29,11.44,33.77,6.54,45.42-7,15-17.4,13.45-40.94-6-57.68s-43-14.65-57.4,2.06c-18.37,21.33-7.21,41.82,2.38,50.08l12.54-14.56c-5.48-4.72-11.31-15.11-2.76-25.05,5.68-6.6,18.05-10.57,32.71,2s12.56,25.43,6.37,32.63C914.7,890.45,907.25,891.65,899.38,887.11Zm22.88-1.63c7.9-9.17,8.1-23.62-6.56-36.23s-29-10.18-36.28-1.69c-11.14,12.94-.4,25.76,1.06,27l-9.14,10.62c-3.22-3.37-19.49-22.59-.32-44.87,12.76-14.83,34.72-18.15,53.83-1.71s19.09,38.66,5.81,54.08c-14.08,16.37-33.86,13.52-39.94,8.29l9.22-10.72C907.8,894.66,916.88,891.73,922.26,885.48Z"/><path class="cls-2" d="M846.59,924.54c-5.5,4-10.25,2.23-14-2.33l-14.21,10.26c8.6,10.94,22.53,13.43,36.37,3.44,14.86-10.73,17.21-28.33,6.48-43.18S833.93,874,818.8,884.91c-11,7.94-17.65,22.09-8.07,37.49l13.84-10c-2.85-6.45-4.25-11.29,2.44-16.13s13.7-1.11,19.27,6.59S854.29,919,846.59,924.54Zm1.79-23.2c-8.67-12-17.33-11.05-22.83-7.08-6.23,4.5-7.2,10.5-4.09,17.32l-9.9,7.15c-5.89-10.67-2.67-23.6,8.7-31.81s27.25-8.8,38.91,7.33c8.6,11.92,9.29,28.71-5.83,39.64-10.73,7.74-21.5,8.27-31.36-.93l10.45-7.55c4.92,4.68,10.39,4.92,15.61,1.14C860.23,917.75,850.7,904.55,848.38,901.34Z"/><path class="cls-2" d="M799.51,990.7l-2-87.22-7.8,3.33a3.61,3.61,0,0,0-1.87,1.66,4.5,4.5,0,0,0-.54,2.2l.71,21L754.57,945.9l-14.65-15a4.58,4.58,0,0,0-2-1.18,3.64,3.64,0,0,0-2.47.26l-7.8,3.33,61.6,61.79Zm-39-38.72,27.81-11.87,1.22,35.25c0,1,.13,2.25.28,3.6s.33,2.82.56,4.4a60.87,60.87,0,0,0-5.24-6.06Z"/><path class="cls-2" d="M712.31,994.31a31.41,31.41,0,0,0,11.49-4.56,32.54,32.54,0,0,0,8.72-8.68l-2.39-2.81a4.06,4.06,0,0,0-1.45-1.07,3,3,0,0,0-1.85-.19,4.59,4.59,0,0,0-2.4,1.42c-.75.79-1.65,1.67-2.71,2.67a24.08,24.08,0,0,1-3.86,2.89,18.05,18.05,0,0,1-5.9,2.1q-5.49,1.08-9-1.75t-4.75-9.41l-.87-4.41a74.3,74.3,0,0,0,15.85-4.7,39.11,39.11,0,0,0,9.91-6,16.49,16.49,0,0,0,4.83-6.64,12.61,12.61,0,0,0,.57-6.79A16.52,16.52,0,0,0,726,940a13.28,13.28,0,0,0-4.27-4,14.19,14.19,0,0,0-5.51-1.78,20.22,20.22,0,0,0-6.31.29,28.78,28.78,0,0,0-5.74,1.7,23,23,0,0,0-4.64,2.61,25.08,25.08,0,0,0-3.92,3.53q-1.8,2-3.62,4.43l-2.14-5a2.5,2.5,0,0,0-1.53-1.66,5.33,5.33,0,0,0-2.42,0l-4.38.86,7,35.94a28.44,28.44,0,0,0,3,8.41,18.64,18.64,0,0,0,5.09,6,17.59,17.59,0,0,0,7,3.12A21.56,21.56,0,0,0,712.31,994.31Zm-16.15-30.07-2.28-11.6a32.85,32.85,0,0,1,2.79-3.83,22,22,0,0,1,3.2-3.07,18.77,18.77,0,0,1,3.79-2.3,20.22,20.22,0,0,1,4.66-1.46,13.5,13.5,0,0,1,3.7-.24,7.92,7.92,0,0,1,3.18.94,7.51,7.51,0,0,1,2.47,2.28,9.57,9.57,0,0,1,1.47,3.7,7.21,7.21,0,0,1-.53,4.51,10.93,10.93,0,0,1-3.71,4.15,32.86,32.86,0,0,1-7.32,3.78A67.28,67.28,0,0,1,696.16,964.24Z"/><path class="cls-2" d="M617.67,991a16.75,16.75,0,0,0-2.88,5.11,17.69,17.69,0,0,0-1,5.75,22.44,22.44,0,0,0,1.56,8.87,16.53,16.53,0,0,0,5.07,6.7,24.84,24.84,0,0,0,8.83,4.29,49.57,49.57,0,0,0,12.84,1.62l25.83.3.94-81-28.66-.33a40.13,40.13,0,0,0-12.08,1.53,25.89,25.89,0,0,0-9,4.61,20.16,20.16,0,0,0-5.63,7.23,22.82,22.82,0,0,0-2,9.36q-.09,7.58,4.38,12.27t13.33,6.54a26.4,26.4,0,0,0-6.74,3A20.27,20.27,0,0,0,617.67,991Zm9-15.59a12.15,12.15,0,0,1-4.32-10,16.37,16.37,0,0,1,1.08-5.89,11.63,11.63,0,0,1,3.25-4.6,14.94,14.94,0,0,1,5.57-3,26.58,26.58,0,0,1,8.07-1l17.53.2-.33,28.21L640,979.22Q631,979.13,626.62,975.42Zm-.77,19.67a11,11,0,0,1,3.36-4.34,16.17,16.17,0,0,1,5.66-2.76,27.68,27.68,0,0,1,8-.93l14.47.17-.32,27.64-14.87-.17q-9-.11-13.3-3.49t-4.18-10.51A14.67,14.67,0,0,1,625.85,995.09Z"/><path class="cls-2" d="M595,938.47a2.42,2.42,0,0,0-3,1.51l-1.67,4.95a21.3,21.3,0,0,0-5.23-7.36,19.19,19.19,0,0,0-8.69-4.22,22.66,22.66,0,0,0-19.63,4.25,28.29,28.29,0,0,0-6.89,8.1,39.25,39.25,0,0,0-4.31,11.1,47,47,0,0,0-1.35,12.6,26.81,26.81,0,0,0,2.18,9.9,18.11,18.11,0,0,0,5.41,7,21,21,0,0,0,8.33,3.84A21.69,21.69,0,0,0,571,990a29.53,29.53,0,0,0,9.46-4.63l-7.72,33.37,9.86,2.28,18.76-81.13Zm-12.88,39.61a24.9,24.9,0,0,1-8.07,4.69,16.23,16.23,0,0,1-8.91.26,15.45,15.45,0,0,1-5.74-2.54,11.12,11.12,0,0,1-3.61-4.7,18.69,18.69,0,0,1-1.3-7.06,40.67,40.67,0,0,1,1.2-9.59q2.38-10.29,7.86-14.89t13.29-2.79a17.65,17.65,0,0,1,6.84,3.15,15.76,15.76,0,0,1,4.68,6.48Z"/><path class="cls-2" d="M491.46,988.25a37.32,37.32,0,0,0,15.28-2.12,38.22,38.22,0,0,0,13.18-8.23A45.94,45.94,0,0,0,529.85,964a49,49,0,0,0,4.76-16.33,38.3,38.3,0,0,0-1.39-15.18,34.65,34.65,0,0,0-7.3-12.9,40.31,40.31,0,0,0-13-9.59,41.21,41.21,0,0,0-16.81-4.48,34.65,34.65,0,0,0-14.77,2.9l1.85,6.09a2.29,2.29,0,0,0,1.16,1.37,2.89,2.89,0,0,0,2.05,0,35,35,0,0,1,5.27-1.14,22.44,22.44,0,0,1,5.12-.09,26.21,26.21,0,0,1,5.4,1.11,44.55,44.55,0,0,1,6,2.43,28.58,28.58,0,0,1,9.07,6.72,25,25,0,0,1,5.33,9.48,29.84,29.84,0,0,1,1,11.61,39.12,39.12,0,0,1-3.87,13.13,38.54,38.54,0,0,1-7.7,11,29.06,29.06,0,0,1-9.83,6.45,26.69,26.69,0,0,1-11.14,1.72,30.68,30.68,0,0,1-11.69-3.13,33.53,33.53,0,0,1-5.53-3.24,29.77,29.77,0,0,1-3.81-3.3,24,24,0,0,1-2.54-3.09c-.65-1-1.21-1.88-1.66-2.68s-.85-1.48-1.18-2a2.85,2.85,0,0,0-1.17-1.15,2.53,2.53,0,0,0-1.49-.31,4.2,4.2,0,0,0-1.22.45l-5.38,3a37,37,0,0,0,19.82,20.91A43.92,43.92,0,0,0,491.46,988.25Z"/><path class="cls-2" d="M426.07,924.7a28.45,28.45,0,0,0,10.51,5.23,23.65,23.65,0,0,0,10.44.24,26.64,26.64,0,0,0,9.8-4.29,37.61,37.61,0,0,0,8.58-8.32,37.16,37.16,0,0,0,6-11.12,27.26,27.26,0,0,0,1.35-10.59,22.67,22.67,0,0,0-2.89-9.41,25.05,25.05,0,0,0-6.73-7.62,33,33,0,0,0-10.69-5.47A21.73,21.73,0,0,0,441,873l0,4.64a2.16,2.16,0,0,0,.95,1.93,3.11,3.11,0,0,0,2.15.53,30,30,0,0,1,3.25,0,18.63,18.63,0,0,1,4.33.84,18,18,0,0,1,5.34,3,16.21,16.21,0,0,1,4.64,5.35,14.21,14.21,0,0,1,1.62,6.49,19.92,19.92,0,0,1-1.45,7.42,33.19,33.19,0,0,1-4.66,8.07,34,34,0,0,1-6.32,6.48,19.5,19.5,0,0,1-6.76,3.46,14.43,14.43,0,0,1-6.91.17,19.66,19.66,0,0,1-10.62-7.1,21,21,0,0,1-2-3.48,28.53,28.53,0,0,1-1.06-2.76,3.16,3.16,0,0,0-1-1.67,2.07,2.07,0,0,0-1.24-.52,4.43,4.43,0,0,0-1.3.21l-4.31,1.27a25.38,25.38,0,0,0,3.18,9.35A27.18,27.18,0,0,0,426.07,924.7Z"/><path class="cls-2" d="M367.16,887.19a2.71,2.71,0,0,0,1.51.17,7.11,7.11,0,0,1,1.21-.08,11.4,11.4,0,0,0,2.19,3.49,1.53,1.53,0,0,0,1.61.46,17.4,17.4,0,0,0,2.57-.84q2.07-.93,16.25-7.75l5.44-2.56q3.06-1.5,5.19-2.41c1.43-.6,2.61-1.12,3.54-1.54q2.07-1.08,5.27-2.41,1.46,1.13,5.4,4t7.56,5.46a7.58,7.58,0,0,0,2.22,1.06,2.22,2.22,0,0,0,1.85-.73,3.78,3.78,0,0,0,1.15-1.85,2.07,2.07,0,0,0-.52-2,31.54,31.54,0,0,0-4.37-3.22q-2.46-1.59-7.3-5,2-.77,8.28-3.19T436.72,864q3.94-1.68,5.09-2.09.74-.36,4.65-2a22.07,22.07,0,0,0,4.83-2.47,2.35,2.35,0,0,0,.88-1.91,3.26,3.26,0,0,0-.88-2,3.3,3.3,0,0,0-2.46-1.15,5.45,5.45,0,0,0-2.88.75q-6.12,3.15-18,8.36l-8.87,3.63-6.57,2.65-5.19-4.16q-12.83-10.38-17.93-14.78.79-1.15,3.37-4.8c1.73-2.43,3.22-4.41,4.49-5.94q4.25-5.27,7.23-9.05t5.2-7.1a8.83,8.83,0,0,0,.74-2.31,2.59,2.59,0,0,0-.46-2.31,3.23,3.23,0,0,0-2-1.09,2.46,2.46,0,0,0-2,.6,25.67,25.67,0,0,0-1.91,2.45q-4.59,6.93-11.78,16c-2.08,2.65-3.65,4.79-4.72,6.44q.09-.08-2.53,3.45c-.45-.4-1.36-1.11-2.71-2.13a8,8,0,0,0-3.06-1.66,3,3,0,0,0-1.73.09,4.28,4.28,0,0,0-1.53.83,2.79,2.79,0,0,0-1.15,3,1.33,1.33,0,0,0,.79,1,6.44,6.44,0,0,0,1.46.37,4.85,4.85,0,0,1,1.41.41l1.4.8a15.81,15.81,0,0,1,2.37,1.75q-1.32,2.08-5.37,8.69T371,868.44a83.59,83.59,0,0,0-4.79,11.13c-1.14,3.37-1.26,5.57-.36,6.58A3.87,3.87,0,0,0,367.16,887.19Zm5-8.58a63.75,63.75,0,0,1,3.73-8.75q2-3.89,5.67-9.55c2.44-3.78,4.05-6.25,4.81-7.44l2.36,2,8.47,7,10.47,8.4q-18,8-25.84,11.41a56.14,56.14,0,0,1-8,2.72l-3,1C370.6,884.06,371.06,881.8,372.16,878.61Z"/><path class="cls-2" d="M337.53,813a37.26,37.26,0,0,0,7.29,3.5,84.47,84.47,0,0,0,17.82,4.38,101.9,101.9,0,0,0,19,1.1q8.84-.37,12.76-2.63a8.59,8.59,0,0,0,4.12-4.64,7,7,0,0,0-.82-6q-3.72-6.47-11.94-9.57a60,60,0,0,0-15.92-3.78q-7.68-.68-17.67-.82a4.59,4.59,0,0,1,2.56-3l3.79-2q11.93-6.45,14.29-7.8a14.12,14.12,0,0,0,4.3-3.64q1.56-2.07.6-3.73c-.38-.65-1.26-1-2.65-1.09a6,6,0,0,0-3.26.56,2.45,2.45,0,0,0-.83,1.39,3.11,3.11,0,0,1-1,1.6c-1.14.74-2.71,1.73-4.7,3l-6.16,3.8-7.81,4.8q-4.71,2.89-6.23,3.9-2.53,1.71-1.92,2.79l1.45,1.39a12.72,12.72,0,0,0-6.75,1.65,8.11,8.11,0,0,0-3.34,3.48,10.09,10.09,0,0,0-1.12,4.42,7.42,7.42,0,0,0,.88,3.8A10.47,10.47,0,0,0,337.53,813Zm1.68-9.12a6.4,6.4,0,0,1,2.88-3.27,19.48,19.48,0,0,1,7.05-2.48q10.65.15,18.31.91a53.18,53.18,0,0,1,14.4,3.4,18.66,18.66,0,0,1,9.77,8c1.05,1.83.6,3.31-1.37,4.43q-3.53,2-11.46,2.27a95.47,95.47,0,0,1-17-1.08,79.62,79.62,0,0,1-15.3-3.61c-3.68-1.28-6-2.73-6.93-4.37A4.63,4.63,0,0,1,339.21,803.88Z"/><path class="cls-2" d="M322.16,768.17q4.09-1.29,11-4.18l4.86-1.88q12.81-4.86,21.22-7.52a22.67,22.67,0,0,1,6.24-.89,37.44,37.44,0,0,0,4-.19,2,2,0,0,0,1.35-1.37,3.18,3.18,0,0,0,.07-2,2.7,2.7,0,0,0-1.3-1.84,6.41,6.41,0,0,0-2.46-.29,57.73,57.73,0,0,0-12.42,2.72c-2.08.66-4.29,1.41-6.63,2.27s-4.05,1.45-5.13,1.79l-4,1.51c-.39-.51-1.13-1.54-2.22-3.1s-2.27-3.15-3.58-4.79c-1.17-1.45-2.73-3.29-4.7-5.52q-.89-.9-3.09-3.41a38.67,38.67,0,0,1-7.39-13.68,12.77,12.77,0,0,1-.64-5.6,3.6,3.6,0,0,1,2.61-3.2,15.35,15.35,0,0,1,8.69-.07,65.48,65.48,0,0,1,11,4.3,70.35,70.35,0,0,1,9.28,5.55,56.67,56.67,0,0,1,8.36,6.79,16.89,16.89,0,0,1,2.8,4,21.09,21.09,0,0,0,1.81,2.75,9.93,9.93,0,0,0,3.08,2.82,4.15,4.15,0,0,0,3.38.37,2.18,2.18,0,0,0,1.52-1.37,3.29,3.29,0,0,0,0-2.08c-.45-1.44-1.83-3.31-4.14-5.63a79.65,79.65,0,0,0-7.85-6.83,91.36,91.36,0,0,0-13.09-8.45,105.56,105.56,0,0,0-15.07-6.63,18.62,18.62,0,0,0-11.59-.5c-3.24,1-5.16,2.93-5.78,5.74a17.6,17.6,0,0,0,.63,9.16,63.36,63.36,0,0,0,3.3,8.21q-13.39-7.17-22.89-4.17a7.19,7.19,0,0,0-5,5.78,19.87,19.87,0,0,0,.8,10.24,70.2,70.2,0,0,0,4.92,11.84,136.41,136.41,0,0,0,7.62,12.54,128.19,128.19,0,0,0,10.67,14q5.52,6.19,7.56,5.56a2.88,2.88,0,0,0,1.63-1.23,2,2,0,0,0,.28-1.75q-.3-1-2.88-3.12a30,30,0,0,1-4.19-3.9,78.53,78.53,0,0,1-7.18-9.23c1.06-.18,3.23-.62,6.52-1.34S320.07,768.83,322.16,768.17Zm-18.22-1.37a74.19,74.19,0,0,1-5.47-9.66A80.35,80.35,0,0,1,294,746.35a14.86,14.86,0,0,1-.76-7.11,4.49,4.49,0,0,1,3.16-3.72q7.33-2.31,16.37,2.31a54.31,54.31,0,0,1,16.58,13.51q1.51,1.78,3,4a21.79,21.79,0,0,1,2,3.23q-10.47,4-17.48,6.22A55.19,55.19,0,0,1,303.94,766.8Z"/><path class="cls-2" d="M270.77,696.9c-1.54.94-2.25,2.05-2.13,3.32.15,1.58,1.08,2.29,2.81,2.12a9,9,0,0,0,1.39-.24l1.39-.35,1.16-.34a7.55,7.55,0,0,1,1.29-.23q3.57-.67,28.81-3.94t38.31-4.48a4.85,4.85,0,0,0,2.45-1.13c.88-.69,1.29-1.3,1.25-1.82-.19-1.95-1.62-3.11-4.3-3.46A67.24,67.24,0,0,1,328.7,683a75,75,0,0,1-12-5.24,44.59,44.59,0,0,1-10.88-8.3q-4.29-4.59-4.73-9.32a4,4,0,0,1,.78-3.2,4.79,4.79,0,0,1,3.12-1.26q5.4-.5,12.83,2.44a53,53,0,0,1,14.39,8.77,46.54,46.54,0,0,1,11.06,13.28,8.61,8.61,0,0,0,2.44,3,3.82,3.82,0,0,0,2.57.83,3.12,3.12,0,0,0,2.07-1,2.58,2.58,0,0,0,.71-2.11q-.23-2.48-4.41-7.09a81.6,81.6,0,0,0-21.79-17.61q-12-6.6-21.6-5.71-4.28.41-6.33,2.8a7.68,7.68,0,0,0-1.72,5.9q.48,5.07,5.39,10.85a50,50,0,0,0,12.61,10.41,84,84,0,0,0,9.07,4.77,46.74,46.74,0,0,0,8.69,3.11q-.74.52-7.79,1.64-14.34,2.13-41.13,4.62l-6,.56A12.31,12.31,0,0,0,270.77,696.9Z"/><path class="cls-2" d="M285.44,600.52a6.83,6.83,0,0,1,3.76-1.91,20.25,20.25,0,0,1,5.36-.16,6.44,6.44,0,0,1,1.93.58,6.57,6.57,0,0,0,1.48.54c.68.06,1-.2,1.1-.81,0-.29-.38-.79-1.22-1.48a16.9,16.9,0,0,0-3.16-1.95,11.2,11.2,0,0,0-3.82-1.1A14,14,0,0,0,282,596a8.9,8.9,0,0,0-4.2,7.15c-.32,3.31,1,6.74,3.89,10.32A46.83,46.83,0,0,0,293,623.28a94.25,94.25,0,0,0,16.39,7.93,67.18,67.18,0,0,0,17.3,4.39q11.37,1.1,17.78-4.77t7.38-16a28.61,28.61,0,0,0-4.34-18.13,62.15,62.15,0,0,0-11.21-13.91q-2.73-2.31-3.86-2.42a2.36,2.36,0,0,0-1.26.11,1,1,0,0,0-.42.87c-.05.45.66,1.2,2.11,2.24a26.58,26.58,0,0,1,2.38,1.82,73.94,73.94,0,0,1,8.86,14.2,28.91,28.91,0,0,1,2.51,15.29A16.29,16.29,0,0,1,336,629.06a20.36,20.36,0,0,1-9.43,1.19,63.77,63.77,0,0,1-15-3.37,82,82,0,0,1-13.72-6.08q-15-8.59-14.19-16.7A5.74,5.74,0,0,1,285.44,600.52Z"/><path class="cls-2" d="M310.94,545.48a21.77,21.77,0,0,1,3.94.35,16.1,16.1,0,0,0,3.18.38,1.46,1.46,0,0,0,1.58-1.11c.09-.36-.64-.92-2.19-1.69a23.34,23.34,0,0,0-4.18-1.64,6.71,6.71,0,0,0-3.19.09A11.77,11.77,0,0,0,307,543a5.85,5.85,0,0,0-2.85,3.69q-1.51,5.68,4.84,13.46A74.09,74.09,0,0,0,325,574.5q9.72,6.57,16.71,8.42a14,14,0,0,0,9-.47,8.42,8.42,0,0,0,5.42-5.87,15.3,15.3,0,0,0-1.2-10.44,81,81,0,0,0-7.88-13,70.48,70.48,0,0,0-4.92-6.16q-2.79-3.13-3.44-3.32c-.66-.17-1.1.18-1.34,1-.07.3.25.91,1,1.84s1.18,1.5,1.36,1.71a112.1,112.1,0,0,1,7.94,11.94,33.62,33.62,0,0,1,3.3,7.37,12.58,12.58,0,0,1,.05,6.86q-1.28,4.8-8.49,2.89-5.13-1.37-13.77-6.94a68.7,68.7,0,0,1-14.52-12.28q-5.88-6.72-4.51-11.85C309.86,545.78,310.26,545.54,310.94,545.48Z"/></svg>