<svg id="Capa_1" data-name="Capa 1" xmlns="http://www.w3.org/2000/svg" viewBox="0 0 520.37 302.09"><title>logoblack</title><path d="M48.93,91.07c0-2.6-1.32-4.64-4-6.14s-6.9-2.84-12.75-4Q3,75,3,56.77q0-10.6,9-17.71T35.69,32q15.59,0,24.92,7.15T70,57.65H48.1a10.16,10.16,0,0,0-3-7.55c-2-2-5.17-3-9.45-3q-5.52,0-8.55,2.43a7.6,7.6,0,0,0-3,6.18,6.52,6.52,0,0,0,3.44,5.71q3.44,2.18,11.61,3.76a95.63,95.63,0,0,1,13.76,3.57Q70.19,75,70.18,90.19q0,10.91-9.6,17.63t-24.81,6.74A44.27,44.27,0,0,1,17.51,111,30.51,30.51,0,0,1,5,101.2,22.4,22.4,0,0,1,.45,87.76H21.17a11,11,0,0,0,4.32,8.69q4,3,10.73,3c4.19,0,7.35-.78,9.49-2.32A7.15,7.15,0,0,0,48.93,91.07Z"/><path d="M133.25,105q-8.09,9.57-22.38,9.57-13.16,0-20.08-7.36T83.72,85.63V33.43h21.85V85q0,12.45,11.65,12.46,11.11,0,15.28-7.52V33.43h21.93v79.66H133.86Z"/><path d="M244.65,74q0,19.16-8.4,29.86t-23.44,10.71q-13.31,0-21.25-9.94l-1,8.47H170.91V0h21.86V40.57Q200.33,32,212.66,32q15,0,23.48,10.72t8.51,30.15Zm-21.86-1.54q0-12.07-3.93-17.64t-11.72-5.55q-10.44,0-14.37,8.32V89q4,8.4,14.52,8.4t13.92-10.16Q222.78,82.39,222.79,72.45Z"/><path d="M27.68,294H5.75V180.94H27.68Z"/><path d="M68.74,294H46.81V214.37H68.74Z"/><path d="M107.24,214.37l.68,8.91q8.68-10.38,23.52-10.38,15.8,0,21.7,12.14,8.63-12.15,24.58-12.14,13.31,0,19.81,7.54T204,243.15V294H182.11v-50.8q0-6.78-2.73-9.9t-9.6-3.13q-9.84,0-13.61,9.13l.07,54.7H134.39V243.3q0-6.92-2.8-10t-9.53-3.09q-9.3,0-13.46,7.51V294H86.74V214.37Z"/><path d="M243.89,294H222V214.37h21.93Z"/><path d="M282,214.37l.68,9.2q8.78-10.66,23.52-10.67,13,0,19.36,7.43t6.5,22.24V294H310.22V243.08q0-6.77-3-9.83t-10.06-3.05q-9.22,0-13.84,7.65V294H261.44V214.37Z"/><path d="M396.05,294a23,23,0,0,1-2.19-7.14q-7.94,8.61-20.65,8.61-12,0-19.92-6.77a21.55,21.55,0,0,1-7.91-17.08q0-12.66,9.65-19.44t27.86-6.85H393V240.8A12.92,12.92,0,0,0,390,232q-2.91-3.3-9.19-3.31-5.52,0-8.66,2.58a8.66,8.66,0,0,0-3.14,7.07H347.2a21,21,0,0,1,4.38-12.81A28.88,28.88,0,0,1,364,216.25a46.12,46.12,0,0,1,18-3.35q15.12,0,24,7.39t8.88,20.8v34.53q.08,11.34,3.26,17.16V294ZM378,279.23a19.22,19.22,0,0,0,8.92-2.1A13.93,13.93,0,0,0,393,271.5V257.81h-8.17q-16.41,0-17.46,11l-.08,1.25a8.41,8.41,0,0,0,2.87,6.55A11.36,11.36,0,0,0,378,279.23Z"/><path d="M454.74,294H432.81V180.94h21.93Z"/><path d="M499.59,261.63c-11.46,0-20.78,9.08-20.78,20.23s9.32,20.23,20.78,20.23,20.78-9.07,20.78-20.23S511.05,261.63,499.59,261.63Zm0,34.9a14.67,14.67,0,1,1,15.06-14.67A14.89,14.89,0,0,1,499.59,296.53Zm7.55-17.3c0-4.08-2.94-6.62-7.68-6.62h-7v18.51h4V286H500l3.88,5.17h5l-4.73-6.3A6.26,6.26,0,0,0,507.14,279.23ZM499.46,282h-3v-5.51h3c3.66,0,3.66,2,3.66,2.7S503.12,282,499.46,282Z"/><polygon points="258.85 102.38 258.85 33.43 309.63 89.62 276.22 78.31 258.85 102.38"/></svg>