<svg id="Capa_1" data-name="Capa 1" xmlns="http://www.w3.org/2000/svg" viewBox="0 0 3685.04 315.61"><defs><style>.cls-1{opacity:0.5;}.cls-2{fill:gray;}.cls-3{fill:#b3b3b3;}.cls-4{fill:#50cc7c;}.cls-5{fill:#fefefe;}.cls-6{fill:#fdfdfd;}</style></defs><title>marcas</title><g class="cls-1"><path class="cls-2" d="M430.55,192.71c-16.58.49-33.2.5-49.74,1.61-23.35,1.56-46.67,3.69-70,6.05-13.81,1.4-27.51,3.77-41.29,5.52a14.88,14.88,0,0,1-6.49-.84,3.5,3.5,0,0,1-1.19-6.05,14.71,14.71,0,0,1,5.24-3,248.84,248.84,0,0,1,46.13-9.69c16.81-2,33.64-4,50.52-5.37,15.85-1.29,31.76-2.11,47.67-2.55,24.92-.69,49.85-1.2,74.77-1.2A654.55,654.55,0,0,1,556,181.14c24.41,2.61,48.61,6.42,72.37,12.64,17.49,4.59,34.66,10.14,50.62,18.82,6.65,3.61,12.06,8.51,15.11,15.7,3.9,9.17.51,23.61-15.06,23.84-10.65.16-20.17-3.48-29.63-7.52-22.4-9.55-45.68-16.11-69.53-20.8a369.5,369.5,0,0,0-51.77-6.34c-5-.26-6.49-1.54-6.44-5a4.46,4.46,0,0,1,4.11-4.55c5.83-.91,11.73-1.48,17.61-2.06,2.67-.26,5.39-.05,8.05-.35,1-.11,2-1,2.95-1.6-.86-.82-1.63-2.21-2.6-2.38-6.66-1.1-13.34-2.25-20.06-2.81-22.14-1.83-44.28-3.71-66.45-5-11.55-.67-23.17-.12-34.76-.12Z"/><path class="cls-2" d="M610.89,137.68V119.87h8.85v46.38H611.1c-.1-1.05-.19-2-.29-3.22a36.53,36.53,0,0,1-3.62,2.73,11.17,11.17,0,0,1-15.85-4.69c-3.58-6.86-2.57-17.42,2.18-22.82,4.46-5.07,11-5.67,16.29-1.5Zm.44,12.63-.44-.09a21.48,21.48,0,0,0,0-2.78c-.45-3.34-2.55-5.5-5.44-5.71a5.43,5.43,0,0,0-6.13,4.79,28,28,0,0,0-.14,8.72c.36,2.56,2.36,4.17,5,4.44a5.07,5.07,0,0,0,5.56-3.28A42.46,42.46,0,0,0,611.33,150.31Z"/><path class="cls-2" d="M305,130.11c-4.79,11.67-9.25,22.6-13.81,33.48-.46,1.09-1.6,1.9-2.42,2.84-.79-.88-1.87-1.63-2.31-2.66-4.37-10.31-8.63-20.67-12.93-31a2.39,2.39,0,0,0-1.08-1.35v34.88h-4.57V122.08a28.63,28.63,0,0,1,4.91.08,3.33,3.33,0,0,1,2,1.85c4.58,11,9.07,22.08,13.58,33.13a4.39,4.39,0,0,0,.44.68l12.73-30.63c2.2-5.28,2.2-5.27,8.11-5v44.15H305Z"/><path class="cls-2" d="M506,155.94c3.36,1.17,6.49,2.38,9.71,3.31a7.08,7.08,0,0,0,3.55-.23c3.81-1,4.83-4.62,2-7.42a26.09,26.09,0,0,0-4.55-3.11c-2.1-1.33-4.44-2.36-6.31-4a12.56,12.56,0,0,1-4.14-13.78,11.62,11.62,0,0,1,10.63-8.84c4-.41,8.22.34,12.33.72a2.26,2.26,0,0,1,1.59,1.48c.17,2.63.07,5.28.07,7.21-3.78-.6-7.42-1.49-11.07-1.6-1.28,0-3.29,1.64-3.73,2.95a5.17,5.17,0,0,0,1.24,4.59c2.67,2.22,5.85,3.82,8.8,5.71,4.28,2.72,6.83,6.47,6.54,11.72-.33,6.07-3.11,10-9,11.62a25.5,25.5,0,0,1-15.57-.41,2.71,2.71,0,0,1-2.14-3.06C506.11,160.43,506,158,506,155.94Z"/><path class="cls-2" d="M668.94,151.55c-.23,5.39-2,11.49-8.63,14.23-6.14,2.52-12.51,2.54-18.06-2-5.17-4.21-6.81-14.25-3.63-21.31,2.71-6,9.9-9.49,17.21-8.33C664.29,135.49,668.94,141.22,668.94,151.55Zm-23.06-.49.52.17c.13,1.1.19,2.21.41,3.29a6.39,6.39,0,0,0,5.89,5.28c3.21.16,5.75-1.53,6.27-5a33.84,33.84,0,0,0-.09-9c-.3-2.44-2.25-3.74-4.65-4.07s-4.84.09-6,2.39A47.12,47.12,0,0,0,645.88,151.06Z"/><path class="cls-2" d="M558,135.11h9v16.48c0,.74,0,1.48,0,2.23,0,3.46,1.84,5.84,4.5,6,2.89.11,5.36-2.31,5.47-5.8.16-5.09.07-10.19.08-15.29v-3.52h9.07v31h-8.93c-.08-1.08-.16-2.16-.27-3.52a8.39,8.39,0,0,0-1,.82,10.41,10.41,0,0,1-11.29,3.34c-4.21-1.19-6.3-4.51-6.48-8.49C557.76,150.7,558,143,558,135.11Z"/><path class="cls-2" d="M547.33,125.25v9.52l6.13.28v7h-6c0,5.1-.21,10,.08,14.81.15,2.42,2,3,6,2.47.06.17.21.37.17.51-.64,2.31,2,5.74-1.78,6.9-5.48,1.7-10.72,0-12.43-3.86a15.6,15.6,0,0,1-1.22-5.61c-.16-4.89-.05-9.79-.05-14.94l-4.77-.25v-7.05l4.49-.25a13.07,13.07,0,0,0,.26-1.61c.19-5.39.19-5.4,5.33-6.87Z"/><path class="cls-2" d="M691.23,142.09a66.79,66.79,0,0,0-7.81-1.07,3.17,3.17,0,0,0-2.46,1.92,4,4,0,0,0,1.55,3.08,41.44,41.44,0,0,0,5.24,2.51c3.75,1.86,5.82,5.2,5.53,8.82a9.81,9.81,0,0,1-7,9,21.74,21.74,0,0,1-12.58,0c-1.43-.39-2-1-1.94-2.46.09-1.84,0-3.69,0-5.95a22.87,22.87,0,0,0,2.71,1.12c2,.57,4.07,1.41,6.11,1.4a4.83,4.83,0,0,0,3.57-2.21c.94-1.84-.91-2.72-2.33-3.42s-3.18-1.46-4.78-2.18a8.41,8.41,0,0,1-5.27-7.53c-.27-3.92,1.07-7.08,4.55-9.13,4.38-2.59,9-2.43,13.67-1a2.33,2.33,0,0,1,1.19,1.76C691.33,138.62,691.23,140.47,691.23,142.09Z"/><path class="cls-2" d="M401,150.11c-.36,6.27-1.63,12.12-7.53,15.27-8.86,4.73-19.57.89-21.48-10.36-1-6.13-.5-12.07,4.19-16.8,4.27-4.29,9.47-5,15.11-3.47s7.84,5.78,9.14,10.83A33.39,33.39,0,0,1,401,150.11Zm-24.42,1.45a44.36,44.36,0,0,0,.78,4.41,9.31,9.31,0,0,0,8.71,7,8.58,8.58,0,0,0,8.79-5.91,19.28,19.28,0,0,0,0-12.55,9,9,0,0,0-15.28-3C377,144.21,376.86,147.62,376.54,151.56Z"/><path class="cls-2" d="M426.62,150.79c0-6.46,1.53-12.35,8-15.23,9.33-4.17,19.4-.08,20.52,11.08a29.45,29.45,0,0,1-.85,11.19c-2.18,7.15-8.38,10.29-16.55,9.22-5.81-.77-10.57-6.43-11.07-13.21C426.55,152.83,426.62,151.8,426.62,150.79Zm24,.17c-.16-1.44-.21-2.93-.51-4.37-1.13-5.36-4.53-8.29-9.33-8.14a9.36,9.36,0,0,0-9.14,8.8,28.87,28.87,0,0,0,.43,8.75,9.06,9.06,0,0,0,9.24,6.93,8.84,8.84,0,0,0,8.72-7.52C450.36,154,450.46,152.48,450.65,151Z"/><path class="cls-2" d="M467.15,134.93h6.47v4h-6.43v27.31h-5v-27l-4.76-.34v-3.81l4.46-.32c.16-2.36.23-4.73.5-7.07.5-4.24,2.57-7.27,6.89-8.41a7.71,7.71,0,0,1,1.33-.29c4.46-.39,5,.18,4.22,4.73-5.78-.73-7.34.26-7.64,5C467,130.68,467.15,132.62,467.15,134.93Z"/><path class="cls-2" d="M422.1,140.31c-2.42-.72-4.13-1.39-5.91-1.74-2.91-.58-5.47.76-6.18,3s.22,4.31,3,5.85c1.46.81,2.95,1.56,4.43,2.32,4.34,2.21,6,5.37,5.34,9.92-.62,4-3.43,6.7-7.91,7.38a17.47,17.47,0,0,1-4.95,0c-5.23-.73-5.62-1.31-5.06-6.82a22.08,22.08,0,0,0,3.4,1.65,16.83,16.83,0,0,0,5.11,1c2.07-.07,3.94-.82,4.5-3.32s-.73-3.91-2.52-5c-2.2-1.37-4.64-2.36-6.76-3.83a9.11,9.11,0,0,1-2-12.81c2.56-3.49,10.42-5.29,13.93-2.73C421.57,135.93,421.52,138.3,422.1,140.31Z"/><path class="cls-2" d="M624.45,135.1h8.78v31.11h-8.78Z"/><path class="cls-2" d="M349.14,160.78c.74,4.48.27,5.21-4,6.1-11.89,2.49-19.19-6.52-17.92-17.93,1.11-9.92,7.74-15.6,16.66-14.81a12.7,12.7,0,0,1,1.36.19c4.45.9,4.62,1.17,3.85,6.14-5.53-2.86-10.75-3.28-14.7,2.48-3.28,4.78-2.95,12.57.5,16.76C337.83,163.24,342.18,163.57,349.14,160.78Z"/><path class="cls-2" d="M493.58,162.35c.55,4.29.26,4.66-3.6,4.91-5,.33-8.15-2.71-8.18-7.95-.05-5.65,0-11.31,0-17v-3.1l-5.07-.35v-3.71l5.06-.5c0-1.37,0-2.65,0-3.92-.16-4.2-.17-4.2,4.51-4.82v9h7.38V139h-7c0,7-.19,13.69.1,20.39.12,2.86,2,3.74,4.94,3.24Z"/><path class="cls-2" d="M360.16,166.32h-4.48V135.1h4.4v4.49c2.4-3.92,5.46-6,10.33-4.85v4.76c-6-1-9.46,1.49-10,7.67-.4,5.07-.23,10.18-.3,15.28C360.14,163.64,360.16,164.83,360.16,166.32Z"/><path class="cls-2" d="M505.7,207.18a51.32,51.32,0,0,1,7.26,2.51,4.36,4.36,0,0,1,.56,7.43c-4.39,2.94-9.21,4.28-14.45,2.24-2.22-.86-4.27-2.4-3.89-4.79a8.15,8.15,0,0,1,3.3-5C500.47,208.31,503.09,208,505.7,207.18Z"/><path class="cls-2" d="M317.85,135.13c.79-.07,1.43-.18,2.06-.18s1.46.08,2.38.13V166.3h-4.44Z"/><path class="cls-2" d="M633.75,124.76a5.22,5.22,0,0,1-4.92,5.28c-2.31,0-4.64-2.73-4.6-5.33,0-2.37,2.42-4.92,4.67-5S633.72,122.17,633.75,124.76Z"/><path class="cls-2" d="M323.36,122.82c-.47,2.89-1.54,4.22-3.66,4s-2.81-1.67-2.72-3.54,1.34-3.36,3.22-2.92C321.5,120.7,322.54,122.16,323.36,122.82Z"/></g><g class="cls-1"><path class="cls-2" d="M2498,128.72h28.65c-.06.18-.15.36-.19.54q-5.46,23.12-10.9,46.21c-.6,2.55-1.19,5.1-1.79,7.65a1.78,1.78,0,0,0,.54-.79,39.1,39.1,0,0,1,7.07-11.47c10-11,22.28-15.06,36.71-11.25,9.23,2.44,15.66,8.27,18.31,17.76a2.89,2.89,0,0,0,.26.44c.11-.34.2-.58.27-.83,1.23-4.47,2.48-8.93,3.69-13.41.19-.73.45-1.06,1.28-1,2.4.05,4.81,0,7.21,0,.7,0,1-.18,1.17-.91,1.81-7.81,3.68-15.59,5.49-23.4.18-.78.45-1,1.27-1,8.8,0,17.61,0,26.41,0,.33,0,.67,0,1.07.07l-6.06,25.33c1.89,0,3.58-.06,5.26,0,.95,0,1.33-.24,1.55-1.2,1.8-7.74,3.67-15.46,5.47-23.19.2-.84.56-1.05,1.38-1.05,8.76,0,17.53,0,26.3,0h1.1c-2,8.49-4,16.84-6,25.36h11.84c-.74,3-1.44,5.88-2.14,8.73a3.16,3.16,0,0,0,1-.84c10.34-10.84,22.75-14.67,37.21-10.45,8.59,2.51,14.6,8.11,17.25,16.89.36,1.21.59,2.45.89,3.68v9q-.68,2.9-1.36,5.82H2678a2.19,2.19,0,0,0-.77,0c-.27.11-.66.34-.69.57a15.62,15.62,0,0,0-.23,2.9,6.4,6.4,0,0,0,6.61,6.48,12.21,12.21,0,0,0,9.59-4.41,1.66,1.66,0,0,1,1.77-.58c5.39,1,10.8,1.9,16.2,2.85l5,.89a19.78,19.78,0,0,1-3.53,6.27A36.64,36.64,0,0,1,2697,220.87c-4.42,1.82-8.95,3.09-13.81,2.76-1.75-.11-3.51.06-5.26,0a30.36,30.36,0,0,1-5.39-.6c-9.76-2.32-16-8.29-18.43-18.1-1.57-6.38-.78-12.63,1.19-18.8.35-1.1.75-2.19,1.16-3.35h-7.7c-.08.3-.16.58-.23.86q-4.29,18.09-8.56,36.17c-.21.89-.54,1.16-1.47,1.15-8.74,0-17.48,0-26.21,0h-1.15c3-12.76,6-25.44,9-38.15h-6.37q-4.53,19.11-9,38.11h-28.49l9-38.09h-8c.17,4.27,0,8.42-1.63,12.4h-1l-37.42,0c-3.45,0-3.61.19-3.35,3.71a6.36,6.36,0,0,0,6.43,6.26,12.24,12.24,0,0,0,9.93-4.51,1.3,1.3,0,0,1,1.41-.48c5,.91,10,1.76,15,2.64l6.52,1.17c-.86,1.59-1.55,3.11-2.45,4.47a31.3,31.3,0,0,1-11.89,10.28c-5.9,3.1-12.07,5.24-18.88,4.89-1.46-.08-2.93,0-4.39,0a26.41,26.41,0,0,1-14.52-4.68c-6.43-4.49-9.29-11-10-18.56-.14-1.6,0-3.23,0-4.85a2,2,0,0,0-.43.91c-1.85,7.83-3.72,15.65-5.54,23.48-.17.74-.44,1-1.2,1-8.84,0-17.67,0-26.51,0h-1c0-.3.08-.48.12-.67l18.66-79.26C2496.08,136.87,2497,132.79,2498,128.72Zm197.52,54.91a5.34,5.34,0,0,0-4.83-6.81,10.57,10.57,0,0,0-8,2.55,8.34,8.34,0,0,0-2.85,4.26Zm-158.23-.11h15.82c.67-3.55-1.26-6.33-4.68-6.83a10.79,10.79,0,0,0-10.23,4.89C2537.83,182.13,2537.61,182.74,2537.24,183.52Z"/><path class="cls-2" d="M2492.69,128.72c-.52,2.37-1,4.75-1.58,7.11l-19.86,84.27c-.06.25-.15.49-.23.74h-28.4a6.45,6.45,0,0,1,.13-.84q8.84-37.55,17.69-75.09c1.28-5.39,2.53-10.79,3.8-16.19Z"/><path class="cls-2" d="M2417.87,160.06l-27.38,6.87a4.19,4.19,0,0,1-.29-.49c-2.07-4.66-6.12-6.82-11.15-5.84-7.42,1.44-12.57,6-16.09,12.4a25,25,0,0,0-2.64,16.33c1.35,8.38,8.22,11.44,15.36,9.46a12.5,12.5,0,0,0,6.57-4.14,6.27,6.27,0,0,0,1.54-3.69H2368c.74-3.16,1.45-6.18,2.17-9.21.76-3.18,1.55-6.36,2.28-9.55.13-.57.31-.8.94-.8q20.71,0,41.41,0l.5,0c-.53,2.29-1.05,4.55-1.58,6.8q-3.87,16.38-7.73,32.76a2.3,2.3,0,0,1-1,1.53,67.95,67.95,0,0,1-38.47,10.09c-9.45-.53-18.11-3.28-25.38-9.57a31.5,31.5,0,0,1-10.9-20.6c-2.11-17.08,5.15-39.61,26.37-51.28a51.86,51.86,0,0,1,28.93-6.56c8.75.6,16.71,3.35,23.27,9.41A30.86,30.86,0,0,1,2417.87,160.06Z"/><path class="cls-2" d="M2408.84,220.83l2.68-11.41q5.42-23,10.81-45.93c.23-1,.54-1.28,1.57-1.28,8.68,0,17.35,0,26,0h1.26q-6.93,29.38-13.81,58.59Z"/><path class="cls-2" d="M2423.72,158.5c1.65-7.17,3.27-14.21,4.89-21.27h28.56c-.61,2.76-1.19,5.44-1.79,8.12-.36,1.65-.7,3.3-1.13,4.93a1.4,1.4,0,0,1-.81.87q-14.61,3.69-29.23,7.32A2.85,2.85,0,0,1,2423.72,158.5Z"/></g><g class="cls-1"><path class="cls-2" d="M1051.46,134.88l-9,9c-1.15-.92-2.3-1.91-3.52-2.8a33.77,33.77,0,0,0-47.43,8.5A33.56,33.56,0,0,0,986,173.84a34.35,34.35,0,0,0,50.37,25.1,26,26,0,0,0,13.44-19.63c.06-.45.13-.89.2-1.42h-30.61V165.07h43.21a41.64,41.64,0,0,1,.63,8.83,45.29,45.29,0,0,1-3.94,18.32c-5.35,11.36-14.23,18.86-26.29,21.95-18.6,4.76-35.09.49-48.55-13.45a43.8,43.8,0,0,1-12.67-34.17c1-16.17,8.76-28.56,22.31-37.25a46.43,46.43,0,0,1,30.28-7.07A44.24,44.24,0,0,1,1051.46,134.88Z"/><path class="cls-2" d="M1201.78,225.27l11.49-4.78c.7,1.19,1.3,2.36,2,3.44a16.64,16.64,0,0,0,23.23,4.38,13.64,13.64,0,0,0,4.55-5.75c1.88-4.3,1.74-8.86,1.66-13.63a5.53,5.53,0,0,0-.8.59,20,20,0,0,1-13.14,6.3c-12.53,1.29-25-7-29.62-19.61A30.64,30.64,0,0,1,1217,158c6.69-3.11,13.57-3.61,20.5-.71a18.11,18.11,0,0,1,6.46,4.48,5.68,5.68,0,0,0,.78.57v-5h12.66v.89q0,26.47,0,53a40.89,40.89,0,0,1-2.58,15.45c-3.58,8.86-10.2,14-19.5,15.81a30.15,30.15,0,0,1-19.41-2.22A29.42,29.42,0,0,1,1201.78,225.27Zm43.92-39.47a20.61,20.61,0,0,0-1.55-8.14c-4.65-11.12-17-13.12-24.89-6.51-8.1,6.73-8.82,20.18-1.53,27.79,6.81,7.11,17.86,6.77,23.88-.75A19.32,19.32,0,0,0,1245.7,185.8Z"/><path class="cls-2" d="M1068.38,185.75c0-17.05,13.18-30.25,30.33-30.3a30.27,30.27,0,1,1-30.33,30.3Zm47.44,0a20,20,0,0,0-1.25-7.19,16.73,16.73,0,0,0-28.28-5.57c-6,6.66-6.16,17.95-.32,25a16.51,16.51,0,0,0,22.92,2.54C1113.67,196.81,1115.71,191.72,1115.82,185.76Z"/><path class="cls-2" d="M1133.91,185.64c.11-17.19,13.37-30.31,30.5-30.19s30.27,13.29,30.2,30.32a29.89,29.89,0,0,1-30.5,30.21C1147,215.88,1133.8,202.59,1133.91,185.64Zm47.43.62a22,22,0,0,0-1.32-7.81,16.74,16.74,0,0,0-28.2-5.48c-6.28,7-6.17,18.78.24,25.72a16.46,16.46,0,0,0,21.06,2.76C1178.79,197.77,1181.16,192.29,1181.34,186.26Z"/><path class="cls-2" d="M1299.16,194.89c3.07,6,7.77,9.09,14.45,9.15s11.46-3,15.11-8.36l10.4,6.93c-1.21,1.43-2.29,2.89-3.56,4.17a30.11,30.11,0,0,1-51.63-18.19c-.62-7.7.91-14.9,5.42-21.27a26.81,26.81,0,0,1,20.43-11.72c11.32-1,19.67,4,25.63,13.38a51.35,51.35,0,0,1,4.18,9.16ZM1324,173.58a3.89,3.89,0,0,0-.22-.59,9.22,9.22,0,0,0-.65-1.09,11.48,11.48,0,0,0-8.72-4.64c-6.19-.51-11,2.16-14.49,7.08a16.58,16.58,0,0,0-2.92,10.45Z"/><path class="cls-2" d="M1278.16,214.11H1265.3V125.47h12.86Z"/></g><g class="cls-1"><path class="cls-2" d="M3147.05,179v52h-14.71V123.67c.48,0,.91-.08,1.34-.08,6.94,0,13.89,0,20.83,0a22,22,0,0,1,4.71.55,12.41,12.41,0,0,1,10,10.71,23.63,23.63,0,0,1,.29,3.56c0,6.79.05,13.58,0,20.38a26.22,26.22,0,0,1-.58,5.15,11.24,11.24,0,0,1-6.69,8.37c-.32.14-.61.31-.92.48,0,0,0,.08-.06.27l1.85,1a11.33,11.33,0,0,1,6,8.23,18.32,18.32,0,0,1,.18,3c0,9.67,0,19.34,0,29,0,5.62.06,11.2,2.05,16.68-.48,0-.86.11-1.24.11-4.07,0-8.14,0-12.2,0a1.72,1.72,0,0,1-1.85-1.3,31.36,31.36,0,0,1-1.94-9.27c-.12-1.58-.13-3.17-.13-4.76,0-9.92,0-19.83,0-29.75a35.53,35.53,0,0,0-.16-3.57,8,8,0,0,0-.52-2,2.19,2.19,0,0,0-2-1.47C3149.89,179,3148.61,179,3147.05,179Zm.09-44.47V168a2,2,0,0,0,.5.15c1,0,2,0,3,0,2.22-.05,3.36-1.19,3.46-3.41,0-.3,0-.6,0-.89V138.43a9.89,9.89,0,0,0-.08-1.63,2.39,2.39,0,0,0-2.06-2.23C3150.38,134.45,3148.8,134.54,3147.14,134.54Z"/><path class="cls-2" d="M3232,179.1v51.71c-1.12.37-12.05.5-14.57.2-.33-1.07-.49-103.55-.17-107.17,1.07-.32,11.13-.44,14.7-.16.11,1.58,0,3.2,0,4.81s0,3.28,0,4.91v34.7h7.47c.07-3,0-5.91,0-8.86s0-5.86,0-8.78V123.87c1.15-.35,11.17-.47,14.58-.21.33,1.07.49,103.7.16,107.17-1,.36-13,.44-14.71.06V179.1Z"/><path class="cls-2" d="M3068.52,231h-14.74V123.69h14.66v44.49H3076v-44.5h14.74V231h-14.67c-.08-5.73,0-11.46,0-17.19s0-11.61,0-17.41V179.1h-7.49Z"/><path class="cls-2" d="M3378,159.76H3363.3c0-.55-.08-1.07-.08-1.59,0-6.9,0-13.79,0-20.68a9,9,0,0,0-.26-2.2,2.08,2.08,0,0,0-1.91-1.62,9,9,0,0,0-1.64,0,2.52,2.52,0,0,0-2.38,2.26,11.73,11.73,0,0,0-.09,1.78c0,6.45,0,12.89,0,19.34a8.29,8.29,0,0,0,1.64,5.29,46.15,46.15,0,0,0,3.85,4.52c2.4,2.44,4.92,4.76,7.35,7.17a42.9,42.9,0,0,1,5.78,7,22.09,22.09,0,0,1,3.77,12.62c-.08,6.5,0,13-.05,19.49a34.71,34.71,0,0,1-.64,6.35c-1.38,6.66-5.56,10.58-12.22,11.73a36.4,36.4,0,0,1-14.48-.33c-5.87-1.36-9.15-5-10.06-10.92a36.46,36.46,0,0,1-.4-5.33c-.05-7.39,0-14.78,0-22.16,0-.44,0-.88.07-1.41h14.87v25.36c.06,3.15,2.55,4.8,5.53,3.65a2.91,2.91,0,0,0,1.91-2.45,11.06,11.06,0,0,0,.07-1.63c0-7.14,0-14.28,0-21.43a9.47,9.47,0,0,0-1.91-6.12,66.1,66.1,0,0,0-4.72-5.33c-2.05-2.09-4.25-4-6.33-6.09a37.31,37.31,0,0,1-6.41-8.16,22.52,22.52,0,0,1-3-11.22c0-6.15-.06-12.3,0-18.45a25.91,25.91,0,0,1,.78-5.87,12.06,12.06,0,0,1,7.94-8.77,25.81,25.81,0,0,1,5.76-1.35,32.22,32.22,0,0,1,12.25.69c5.6,1.5,8.77,5.15,9.48,10.9a30.27,30.27,0,0,1,.25,3.56c0,6.74,0,13.48,0,20.23C3378,158.89,3378,159.23,3378,159.76Z"/><path class="cls-2" d="M3211.21,159.76h-14.74c0-.62-.07-1.2-.07-1.77q0-10.05,0-20.09a13.71,13.71,0,0,0-.12-2.22,2.26,2.26,0,0,0-2.22-2,7.41,7.41,0,0,0-1.63,0,2.33,2.33,0,0,0-2.09,1.84,8.75,8.75,0,0,0-.24,1.9c0,6.6,0,13.2,0,19.79a7.31,7.31,0,0,0,1.22,4.37,41.33,41.33,0,0,0,3.71,4.63c1.94,2.06,4,4,6.06,5.93a56.92,56.92,0,0,1,6.84,7.63,22.65,22.65,0,0,1,4.27,9.71,20.83,20.83,0,0,1,.25,3.25c0,6.8,0,13.59,0,20.39a28.55,28.55,0,0,1-.78,7.07c-1.6,6.24-5.69,9.86-11.95,11a37.09,37.09,0,0,1-14.91-.39c-5.41-1.27-8.55-4.76-9.61-10.14a28.65,28.65,0,0,1-.56-5.31c-.06-7.68,0-15.37,0-23.06,0-.38.05-.76.09-1.23h14.76c0,.58.08,1.15.08,1.72,0,7.59,0,15.18,0,22.77a13.43,13.43,0,0,0,.2,2.36,2.47,2.47,0,0,0,1.89,2.09,9.05,9.05,0,0,0,2.93.21,2.62,2.62,0,0,0,2.34-2.18,9.4,9.4,0,0,0,.22-1.91c0-7.24,0-14.48,0-21.72a9,9,0,0,0-1.63-5.47,43.39,43.39,0,0,0-3.88-4.68c-2.43-2.47-5-4.79-7.49-7.23a37.26,37.26,0,0,1-6.4-8.17,21.65,21.65,0,0,1-2.94-10.63c0-6.55-.05-13.09,0-19.64a22.69,22.69,0,0,1,.66-5,12.2,12.2,0,0,1,8.05-9,26.39,26.39,0,0,1,5.76-1.36,32.88,32.88,0,0,1,11.53.51c6.48,1.5,9.91,5.66,10.33,12.43.07,1.09.06,2.18.06,3.27q0,9.3,0,18.6Z"/><path class="cls-2" d="M3289.78,123.66h14.72q3.09,17.81,6.16,35.53l.31,0q3.48-17.73,7-35.54h10.85c-.05.46-.07.9-.15,1.31q-5.65,26.29-11.3,52.6a14.52,14.52,0,0,0-.3,2.94q0,24.31,0,48.64V231H3302.2v-1.81c0-15.27,0-30.54,0-45.81a39.07,39.07,0,0,0-1-8.82q-5.68-24.92-11.25-49.86C3289.88,124.39,3289.84,124.05,3289.78,123.66Z"/><path class="cls-2" d="M3113.08,168.14h12.39c.36,1.14.46,7.52.19,10.76a34.05,34.05,0,0,1-4,.08c-1.44,0-2.88,0-4.32,0h-4.2v41.3h12.58V231h-27.18l-.13-.11a.26.26,0,0,1-.08-.13c0-.49-.08-1-.08-1.47q0-52.59,0-105.17a1.55,1.55,0,0,1,.17-.48h27.26v10.7c-4.14.26-8.32-.05-12.57.17Z"/><path class="cls-2" d="M3276.65,220.32h12.51V231h-27.33V123.81c1-.28,25.58-.34,27.32,0v10.68h-12.52v33.71h12.58c.06,3.62,0,7.11,0,10.81-4.21.07-8.35,0-12.58,0Z"/><path class="cls-2" d="M3336.61,145h-8.88c1.46-7.13,3.07-14.14,4.6-21.26h10C3340.42,130.78,3338.52,137.82,3336.61,145Z"/><path class="cls-2" d="M3335.62,226.44a5,5,0,1,1-4.95-5A4.87,4.87,0,0,1,3335.62,226.44Zm-.9,0a4.07,4.07,0,1,0-4,4.22A4.1,4.1,0,0,0,3334.72,226.42Z"/><path class="cls-2" d="M3331.62,226.85l1.32,2.22a.69.69,0,0,1-1.08-.28c-.29-.46-.61-.91-.88-1.38a.89.89,0,0,0-1.29-.46l-.12,2.11c-.44.24-.79.23-.8-.25,0-1.71,0-3.43,0-5.26,1,0,1.9,0,2.78,0a1.33,1.33,0,0,1,1.34,1,1.6,1.6,0,0,1-.49,1.87A6.63,6.63,0,0,1,3331.62,226.85Zm-1.93-.88a6.3,6.3,0,0,0,1.59,0,1.22,1.22,0,0,0,.73-.74.73.73,0,0,0-.7-.93,14.51,14.51,0,0,0-1.62,0Z"/></g><path class="cls-3" d="M1639,176.19c1.81-1,1.3-2.94,1.66-4.41,7.11-28.9,32.77-48.1,62.17-46.4,28.57,1.66,52.21,24,55.92,52.77,3.91,30.48-17.43,60-47.66,65.95A60.25,60.25,0,0,1,1641,200.6c-.56-2.15-.2-4.65-2-6.41v-3a28.55,28.55,0,0,0,0-12Z"/><path class="cls-4" d="M1639,179.19a15.69,15.69,0,0,1,0,12Z"/><path class="cls-3" d="M2003.49,199.78c3.22-9.2,6-17.35,8.94-25.48.89-2.5,9.4-4.53,11.16-2.69.79.83.28,1.85-.08,2.78C2018,188.62,2012.67,203,2006.76,217c-3.49,8.32-11.62,10.85-20,7.18-1.54-.67-3.59-1.27-2-3.41,1.41-1.9.31-6.39,5-5.18a14.43,14.43,0,0,0,3.4.63c3.64,0,5.48-2.53,4.12-5.88-3.67-9.08-7.53-18.09-11.24-27.16-1.67-4.08-5.1-2.26-7.77-2.27-2.88,0-1.86,2.67-1.88,4.27-.1,8.16-.23,16.32,0,24.47.14,4.65-3,3.42-5.35,3.44s-5.47,1.17-5.33-3.47c.26-8.32,0-16.65.09-25,0-2.11.1-3.78-2.93-4-3.73-.29-1.92-3.54-2.14-5.53-.17-1.6-.79-4.07,2.27-3.85,2.77.2,2.7-1.52,2.9-3.47,1-10.26,9.14-15.29,18.9-11.77,4.29,1.54,1.86,5.12,2,7.68.18,2.9-2.39,1.09-3.75,1.25-1.14.13-2.32-.09-3.47,0-2.56.28-3.13,2.33-3.27,4.34-.2,2.95,2.22,1.73,3.59,1.89,4.23.47,9.45-1.74,12.48,1,2.75,2.52,3.29,7.44,4.8,11.3Z"/><path class="cls-3" d="M1834.07,209.19c0,4.53-.16,8.53,0,12.51.15,2.81-.75,3.74-3.62,3.66-8.82-.24-7.06.61-7.12-7.16-.1-14-.05-27.94,0-41.91,0-2.29-.9-5.7,3.29-4.95,2.87.51,8.16-3,7.42,4.77,5-4.2,9.94-6.59,15.93-5.5a19.21,19.21,0,0,1,11.51,6.43c6.9,8,7,21.85.27,30.05C1855.25,215,1846,215.86,1834.07,209.19Z"/><path class="cls-3" d="M1800.85,214.06c-8.55-.29-15.37-2.58-21.45-7.07-1.86-1.37-3.15-2.94-.66-4.55,2.17-1.41,2.38-7,6.87-3.7s9.46,5.6,15.18,5.39c3.61-.14,7.26-.88,8.1-5.17.9-4.65-2.72-5.92-6.14-7-4.43-1.39-9-2.38-13.34-4-7.18-2.74-10.42-7.52-10.32-14.31a15.6,15.6,0,0,1,10.73-14.77c9.32-3.23,18-1.33,26.16,3.84,2.28,1.44,2.63,3.11.65,4.7s-1.64,6.79-6.3,3.87c-4-2.51-8.25-4.39-13.12-4-3.36.23-6.46,1.31-7.08,5.06s2.13,5.3,5.15,6.29c4.58,1.48,9.27,2.64,13.76,4.35,8.29,3.16,11.44,8,10.85,15.83-.56,7.3-5.69,12.78-13.64,14.47C1804.14,213.66,1802,213.88,1800.85,214.06Z"/><path class="cls-3" d="M1914,192.35c0,12.32-9.8,21.8-22.41,21.78A21.87,21.87,0,1,1,1914,192.35Z"/><path class="cls-3" d="M1919.9,193.59c0-2.67,0-5.33,0-8,0-2.4.7-4.83-3.41-5-3.16-.16-1.44-3.47-1.64-5.35-.15-1.41-.89-4,1.71-3.83,4.25.21,3.13-2.62,3.39-4.91.23-2-1.29-5.08,1-5.9,2.5-.89,5.67-.65,8.36-.06,2.31.49,1.49,3.14,1.3,4.74-.55,4.57.68,7,5.77,6,3.86-.73,5,.85,5.1,4.82.1,4.37-1.78,5.23-5.32,4.69-4.28-.66-6,.78-5.56,5.35.42,4.12,0,8.31.1,12.47.08,4.91,1.69,6.16,6.5,5.3,1.35-.23,3.64-2.15,3.77.7.13,2.62,1.91,6-1.91,7.94-9.64,4.8-19-.75-19.13-11.46C1919.87,198.58,1919.9,196.08,1919.9,193.59Z"/><path class="cls-3" d="M1956.29,192.37c0,5.83-.17,11.66,0,17.48.17,4.29-2.76,3.43-5,3.24s-5.74,1.77-5.71-3.05c.08-11.82.1-23.64,0-35.46,0-5.16,3.7-2.94,6-3.28,2.59-.37,4.93-.37,4.74,3.59C1956.08,180.71,1956.29,186.54,1956.29,192.37Z"/><path class="cls-3" d="M1957.76,159.35a6.76,6.76,0,0,1-13.5.46,6.76,6.76,0,0,1,13.5-.46Z"/><path class="cls-5" d="M1657.85,166.35c-.1-3.82,2.53-5.16,5.58-6a106.3,106.3,0,0,1,34.66-3c13.87,1,27.34,3.72,39.8,10.26,2.39,1.25,4.76,2.58,5,5.7.37,4.49-4.31,7.27-8.74,4.88-15.13-8.13-31.45-10.29-48.28-9.88a101.45,101.45,0,0,0-20.7,3C1660.73,172.34,1657.89,170.25,1657.85,166.35Z"/><path class="cls-5" d="M1728.79,197.39c-.58-.26-1.65-.67-2.66-1.21-18-9.57-36.92-11.34-56.55-6.69-3.48.83-6.53,1.22-7.56-2.91-1-3.86,1.92-5.25,5.06-6,22.18-5.25,43.5-3.28,63.76,7.63,2.65,1.42,4.14,3.33,3.2,6.43C1733.33,197,1731.53,197.57,1728.79,197.39Z"/><path class="cls-6" d="M1727,210c-.07,3.2-3,4.34-6.77,2.28a61,61,0,0,0-27.15-7.48,87.86,87.86,0,0,0-22.29,2c-2.85.61-5.59,1-6.32-2.6-.68-3.43,2.21-4.07,4.65-4.58,18.56-3.88,36.69-3.52,53.83,5.78C1726.26,207.19,1727,208.15,1727,210Z"/><path class="cls-5" d="M1855.89,192.42c-.1,7.17-4.76,12.13-11.24,12-6.32-.17-10.9-5.55-10.71-12.58.18-6.78,4.82-11.7,11.07-11.72S1856,185.31,1855.89,192.42Z"/><path class="cls-5" d="M1903.21,192.78c-.18,7-4.92,11.78-11.52,11.68s-11.61-5.45-11.5-12.43,5.14-12.14,11.89-11.93S1903.39,185.61,1903.21,192.78Z"/></svg>