<svg id="Capa_1" data-name="Capa 1" xmlns="http://www.w3.org/2000/svg" viewBox="0 0 342.16 1015.82"><defs><style>.cls-1{fill:#3200d7;}</style></defs><title>DERECHA3sinborde</title><path class="cls-1" d="M342.17,1012.84c-15.8-.64-34.33-4.64-49.44-17.13-23.6-19.53-33.37-54.77-29-104.75,4.75-54.64-8.23-98.49-38.59-130.34-25.2-26.44-56.45-37.8-72.83-42.21A136.8,136.8,0,0,1,101,692.46c-40.43-33-74.52-92.55-7.37-189.42,35.77-51.59,44.71-102.61,26.6-151.65C105.4,311.16,75.53,281.14,53.1,263a124.89,124.89,0,0,1-40.82-59.56c-10-31.58-17-75.23,6.8-103.83,2.94-3.54,5.72-6.94,8.39-10.2,17.6-21.54,30.32-37.1,52.77-45.51l1.83-.65C68.22,52.35,57.76,65.14,44.41,81.47,41.75,84.72,39,88.12,36,91.66,11.38,121.29,18.43,166,28.69,198.3a127.78,127.78,0,0,0,41.78,61c39.26,31.67,121.74,118,40,236C79.23,540.3,67,581.82,74,618.65c5.11,26.66,20,50.24,44.36,70.06a139.63,139.63,0,0,0,52.37,26.52C207.18,725,290.71,761.17,280,884.62c-4.44,51,5.69,87.13,30.11,107.32a76.37,76.37,0,0,0,32.08,15.32v-3.07A73.25,73.25,0,0,1,312,989.62c-23.59-19.53-33.36-54.77-29-104.74,4.74-54.64-8.24-98.49-38.59-130.34-25.21-26.45-56.45-37.79-72.83-42.21a136.77,136.77,0,0,1-51.26-26c-40.42-33-74.52-92.55-7.36-189.42,35.76-51.59,44.71-102.61,26.59-151.65C124.66,305.08,94.8,275.06,72.36,257A125,125,0,0,1,31.54,197.4c-10-31.58-17-75.23,6.8-103.83,2.95-3.54,5.73-6.94,8.39-10.2,16.34-20,28.47-34.83,48.09-43.58q2.84-.6,5.87-1.1C89.3,47.42,79.87,59,68.24,73.18c-2.66,3.25-5.43,6.65-8.37,10.19C35.21,113,42.26,157.72,52.52,190a128,128,0,0,0,41.79,61c39.25,31.67,121.73,118.05,40,236C103.06,532,90.8,573.53,97.87,610.36c5.11,26.66,20,50.23,44.36,70.06a139.78,139.78,0,0,0,52.37,26.52c36.41,9.8,119.94,45.94,109.21,169.38-4.43,51,5.7,87.14,30.11,107.33a69.68,69.68,0,0,0,8.25,5.85V93.73C333.86,77.57,323.52,63.91,311.3,53c-19.82-17.65-44.63-28-73.74-30.85-67.38-6.53-101.22-3.4-124.54,8.66A99.32,99.32,0,0,0,93.85,36.9C60.77,44,46.74,61.13,25.15,87.55c-2.66,3.25-5.44,6.65-8.38,10.19C-7.88,127.37-.83,172.09,9.42,204.38a127.87,127.87,0,0,0,41.79,61c39.26,31.67,121.73,118.05,40,236C60,546.38,47.71,587.9,54.77,624.73c5.12,26.66,20,50.23,44.37,70.06a139.66,139.66,0,0,0,52.36,26.52c36.41,9.81,119.94,45.94,109.21,169.39-4.43,51,5.7,87.13,30.11,107.32,15.73,13,35,17.15,51.35,17.8Z"/></svg>