<svg id="Capa_1" data-name="Capa 1" xmlns="http://www.w3.org/2000/svg" viewBox="0 0 348.59 997.07"><defs><style>.cls-1{fill:#3200d7;}</style></defs><title>vueladere2</title><path class="cls-1" d="M339.17,811.53a127.87,127.87,0,0,0-41.79-61c-39.25-31.67-121.73-118-40-236,31.23-45.05,43.49-86.57,36.42-123.4-5.11-26.66-20-50.23-44.36-70.06a139.63,139.63,0,0,0-52.37-26.52c-36.41-9.81-119.94-45.94-109.21-169.39,4.44-51-5.69-87.13-30.11-107.32C39.93,3.13,17.53-.22,0,0V3C17,2.75,38.65,6,55.86,20.2,79.47,39.73,89.24,75,84.89,125c-4.75,54.64,8.24,98.49,38.59,130.34,25.2,26.45,56.45,37.8,72.83,42.21a136.65,136.65,0,0,1,51.25,25.95C288,356.4,322.09,416,254.93,512.87c-35.76,51.59-44.71,102.61-26.59,151.65,14.86,40.23,44.72,70.25,67.16,88.35a124.94,124.94,0,0,1,40.81,59.56c10,31.59,17,75.23-6.79,103.83-2.95,3.54-5.73,6.94-8.39,10.2C303.52,948,290.81,963.56,268.35,972c-.6.23-1.22.45-1.84.66,13.86-9.06,24.32-21.85,37.68-38.19q4-4.87,8.37-10.19c24.65-29.63,17.6-74.35,7.35-106.64a128,128,0,0,0-41.79-61c-39.26-31.66-121.73-118-40-236,31.24-45,43.49-86.57,36.43-123.4-5.12-26.66-20-50.24-44.36-70.06a139.78,139.78,0,0,0-52.37-26.52c-36.41-9.81-119.94-45.94-109.21-169.39,4.43-51-5.7-87.13-30.11-107.32C26.75,14.24,13,9.48,0,7.42v3c12.42,2,25.46,6.63,36.61,15.86C60.21,45.82,70,81.06,65.63,131c-4.75,54.64,8.23,98.49,38.59,130.34,25.2,26.45,56.45,37.79,72.83,42.21a136.73,136.73,0,0,1,51.25,25.95c40.43,33,74.52,92.55,7.37,189.42C199.9,570.54,191,621.56,209.07,670.6c14.86,40.23,44.73,70.25,67.17,88.35a124.94,124.94,0,0,1,40.81,59.56c10,31.58,17,75.23-6.79,103.82-2.95,3.55-5.73,6.95-8.4,10.21-16.34,20-28.47,34.83-48.08,43.58q-2.84.6-5.87,1.09c11.39-8.72,20.82-20.26,32.44-34.48,2.66-3.25,5.44-6.65,8.38-10.19,24.65-29.63,17.6-74.35,7.35-106.64a127.92,127.92,0,0,0-41.79-61c-39.26-31.67-121.74-118-40-236,31.24-45.05,43.49-86.57,36.43-123.4-5.12-26.66-20-50.23-44.37-70.06A139.66,139.66,0,0,0,154,309C117.59,299.17,34.06,263,44.78,139.59c4.44-51-5.69-87.14-30.1-107.33A70.71,70.71,0,0,0,0,22.93V908.19C9.15,930.58,21.69,949,37.29,962.88c19.83,17.65,44.64,28,73.75,30.85,23.07,2.24,42.2,3.34,58.34,3.34,31,0,50.86-4.07,66.2-12A99.44,99.44,0,0,0,254.74,979c33.09-7.07,47.12-24.23,68.71-50.65,2.66-3.25,5.43-6.65,8.38-10.19C356.48,888.54,349.43,843.82,339.17,811.53Z"/></svg>