<svg id="Capa_1" data-name="Capa 1" xmlns="http://www.w3.org/2000/svg" viewBox="0 0 389.26 1239.32"><defs><style>.cls-1{fill:#3200d7;}</style></defs><title>vuelaizq2</title><path class="cls-1" d="M389.26,1236.17a405.26,405.26,0,0,1-38.33-14.77c-38.23-17.05-90.48-48.1-122.34-99.2s-38-113-18.17-183.74c26-92.62,22.29-167.25-10.9-221.83-36-59.22-95.3-73.13-98.19-73.78-2.82-1-78.29-28.21-95-88.74-10.71-38.78,4.55-82.92,45.36-131.19a279.93,279.93,0,0,1,54.53-49.29c18.8-13,45.41-35.79,65.44-70.42,24.59-42.5,32.51-91.19,23.56-144.72a131.67,131.67,0,0,1,3.92-60.82c7.35-23.46,24-55.15,61.45-72.93a134.14,134.14,0,0,1,24.1-8.63l-.56.24c-38.44,18.25-55.49,50.72-63,74.74a134.83,134.83,0,0,0-4,62.22c20.5,122.49-54.53,189.19-87.74,212.18A282.55,282.55,0,0,0,74.22,415.3c-41.49,49.09-56.95,94.15-45.95,134,9.1,32.92,35,55.86,55.15,69.31A204.12,204.12,0,0,0,125.27,640l.18.05c.6.12,60.27,13.12,96.34,72.43,32.74,53.84,36.3,127.67,10.57,219.45-20.07,71.62-13.84,134.24,18.52,186.14,32.26,51.74,85.05,83.13,123.66,100.35,5,2.24,9.95,4.31,14.72,6.21v-3.23c-4.41-1.78-8.95-3.69-13.57-5.75-38.21-17-90.43-48.1-122.27-99.18s-38-113-18.17-183.73c26-92.61,22.29-167.24-10.9-221.82-36-59.23-95.3-73.14-98.18-73.78-2.83-1-78.29-28.22-95-88.75-10.71-38.77,4.55-82.91,45.36-131.19A279.85,279.85,0,0,1,131,368c18.8-13,45.41-35.8,65.45-70.42C221.07,255,229,206.34,220,152.82A131.71,131.71,0,0,1,224,92c7.36-23.45,24-55.14,61.45-72.93A131.25,131.25,0,0,1,301.6,12.7a202.11,202.11,0,0,1,28.07-2.08c-3,1.16-5.92,2.39-8.75,3.73-38.45,18.25-55.49,50.72-63,74.74a134.56,134.56,0,0,0-4,62.22c20.49,122.49-54.54,189.19-87.75,212.18A282.84,282.84,0,0,0,111,413.3c-41.49,49.09-56.95,94.15-45.95,133.94,9.1,32.93,35,55.87,55.15,69.32A204.4,204.4,0,0,0,162.06,638l.18.05c.6.12,60.28,13.12,96.34,72.43,32.74,53.84,36.3,127.67,10.58,219.45-20.08,71.62-13.85,134.24,18.51,186.14,26.45,42.41,66.68,71.14,101.59,89.6V0A203.58,203.58,0,0,0,363,2q-34.72-1-62.05,7.74A147.26,147.26,0,0,0,259.29,22c-38.45,18.25-55.49,50.72-63,74.74a134.82,134.82,0,0,0-4,62.22c20.49,122.49-54.54,189.19-87.75,212.18A282.78,282.78,0,0,0,49.39,421c-41.5,49.08-57,94.15-46,133.94,9.11,32.92,35,55.86,55.16,69.31a203.61,203.61,0,0,0,41.85,21.49l.18,0c.6.12,60.27,13.12,96.34,72.42C229.7,772,233.25,845.87,207.53,937.65c-20.07,71.61-13.84,134.24,18.52,186.14,32.26,51.74,85.05,83.13,123.66,100.35a409,409,0,0,0,39.55,15.18ZM347.12,5.12c-3.13.77-6.2,1.64-9.2,2.59-5.67-.15-11.19-.09-16.58.14A189.44,189.44,0,0,1,347.12,5.12Z"/></svg>