<svg id="Capa_1" data-name="Capa 1" xmlns="http://www.w3.org/2000/svg" viewBox="0 0 509.13 1424.09"><defs><style>.cls-1{fill:#3200d7;}</style></defs><title>vueladere1</title><path class="cls-1" d="M436,688.06a233.54,233.54,0,0,0-49.22-21.94l-.19,0c-.69-.1-69.94-11.24-115-77-40.93-59.65-49.67-144-26-250.82C264,255.08,253,183.81,212.67,126.47,172.5,69.3,110.1,36.7,64.83,19.43A467.67,467.67,0,0,0,0,0V3.07A464.86,464.86,0,0,1,63.76,22.23c44.88,17.13,106.72,49.41,146.46,106s50.69,127.09,32.42,209.45c-23.87,107.63-15,192.81,26.43,253.17a191.57,191.57,0,0,0,75.86,64.43C367.48,665.94,384.44,668.78,386,669a231.74,231.74,0,0,1,48.5,21.66c23.41,13.85,53.88,38,66,74.12,14.73,43.81,0,95.39-43.71,153.31A321.52,321.52,0,0,1,397.5,978c-20.69,16.08-49.71,43.82-70.45,84.7-25.45,50.17-31.45,106.38-17.84,167.06a151.13,151.13,0,0,1-.66,70c-6.95,27.37-24,64.76-65.87,87.53a156.26,156.26,0,0,1-29.57,12.21c1-.5,2-1,2.92-1.51,42.81-23.28,60.25-61.48,67.35-89.42a154.28,154.28,0,0,0,.68-71.41c-31.22-139.1,50.58-220.28,87.2-248.73A324.18,324.18,0,0,0,431.19,928c44.38-58.76,59.24-111.28,44.15-156.08-12.47-37.06-43.55-61.67-67.43-75.78a232.62,232.62,0,0,0-49.23-21.94l-.18,0c-.69-.11-69.94-11.24-115-77-40.92-59.65-49.66-144-26-250.83,18.46-83.21,7.39-154.48-32.9-211.82C144.42,77.37,82,44.77,36.75,27.49c-13.08-5-25.52-9-36.75-12.26v3.12c10.93,3.17,23,7.11,35.68,12,44.88,17.12,106.72,49.41,146.46,106s50.69,127.1,32.42,209.45c-23.87,107.64-15,192.81,26.43,253.17a191.61,191.61,0,0,0,75.86,64.44C339.4,674,356.36,676.85,358,677.1a230.65,230.65,0,0,1,48.44,21.61c23.43,13.86,53.93,38,66.11,74.16,14.75,43.8,0,95.39-43.7,153.32a321.52,321.52,0,0,1-59.38,59.91c-20.69,16.07-49.71,43.81-70.45,84.69-25.45,50.18-31.46,106.39-17.84,167.07a151.14,151.14,0,0,1-.66,70c-7,27.36-24,64.76-65.87,87.52a150,150,0,0,1-18.19,8.33,233.1,233.1,0,0,1-33.25,4.25q5.59-2.49,10.86-5.33c42.81-23.28,60.25-61.48,67.35-89.42a154.28,154.28,0,0,0,.68-71.41c-31.22-139.1,50.58-220.28,87.2-248.73a324.18,324.18,0,0,0,59.93-60.48c44.38-58.76,59.24-111.28,44.15-156.08-12.47-37.06-43.55-61.67-67.43-75.78a232.62,232.62,0,0,0-49.23-21.94l-.18,0c-.69-.11-70-11.3-115.07-77-40.89-59.65-49.62-144-25.94-250.78,18.46-83.21,7.39-154.48-32.9-211.82C103.94,84.15,44.74,51.91,0,34.15V1416.29q41.51,7.8,76.49,7.8a252.26,252.26,0,0,0,50.3-4.73q39.72-1.09,70.41-12.74A169,169,0,0,0,244.11,1390c42.81-23.28,60.25-61.47,67.35-89.42a154.24,154.24,0,0,0,.68-71.4c-31.22-139.11,50.58-220.29,87.2-248.74a324.13,324.13,0,0,0,59.93-60.47c44.38-58.77,59.24-111.28,44.15-156.09C491,726.78,459.87,702.18,436,688.06ZM142.48,1415.5q6.47-1.89,12.56-4.21,11.52-.33,22.29-1.55A216.08,216.08,0,0,1,142.48,1415.5Z"/></svg>